<?xml version="1.0" standalone="no"?>
<!DOCTYPE svg PUBLIC "-//W3C//DTD SVG 20010904//EN"
 "http://www.w3.org/TR/2001/REC-SVG-20010904/DTD/svg10.dtd">
<svg version="1.0" xmlns="http://www.w3.org/2000/svg"
 width="600.000000pt" height="500.000000pt" viewBox="0 0 600.000000 500.000000"
 preserveAspectRatio="xMidYMid meet">

<g transform="translate(0.000000,500.000000) scale(0.100000,-0.100000)"
fill="#000000" stroke="none">
<path d="M0 2500 l0 -2500 3000 0 3000 0 0 2500 0 2500 -1097 -1 c-604 0
-1091 -3 -1083 -6 8 -3 68 -32 134 -65 285 -141 485 -319 667 -593 188 -282
265 -523 276 -867 8 -244 -14 -411 -83 -623 -71 -217 -247 -500 -407 -653
l-35 -34 -21 90 c-12 49 -21 95 -21 102 0 6 18 33 41 58 156 177 288 457 335
712 28 146 25 450 -5 590 -32 149 -74 269 -135 386 -231 437 -630 731 -1111
820 -137 25 -315 29 -445 10 -284 -42 -471 -112 -690 -259 -322 -217 -568
-589 -639 -968 -52 -277 -28 -579 65 -837 41 -113 75 -179 164 -314 37 -57 65
-107 62 -112 -3 -5 -11 3 -19 17 -19 37 -55 44 -98 18 -67 -39 -85 -31 -139
59 -201 338 -273 710 -216 1112 24 169 39 228 95 372 93 242 186 384 380 585
148 154 337 286 523 367 l77 34 -1287 0 -1288 0 0 -2500z m2885 2144 c45 -12
108 -18 175 -19 102 -1 107 -2 152 -33 55 -38 92 -96 107 -170 16 -75 25 -89
82 -118 40 -20 54 -34 67 -65 15 -39 39 -55 29 -20 -2 10 0 25 5 32 8 11 9 10
4 -3 -3 -10 -1 -18 3 -18 5 0 7 -8 4 -18 -2 -10 2 -24 10 -30 18 -16 105 -19
177 -8 50 8 54 8 42 -7 -8 -9 -35 -23 -61 -32 -26 -8 -77 -40 -113 -70 -36
-30 -69 -55 -71 -55 -3 0 -11 26 -17 58 -11 55 -16 61 -136 180 -68 67 -129
122 -135 122 -8 0 -7 -6 2 -17 11 -16 11 -16 -1 -5 -8 7 -15 18 -15 24 0 7
-45 39 -101 72 -55 34 -134 84 -175 112 -106 73 -103 71 -95 40 9 -37 -6 -32
-50 17 -21 23 -42 41 -45 40 -7 -2 -59 61 -59 71 0 2 33 -10 73 -28 39 -19
104 -42 142 -52z m1201 -87 c76 -40 134 -132 142 -224 4 -52 4 -53 -23 -53
-15 0 -55 7 -89 16 -100 26 -255 6 -300 -39 -15 -15 -34 -22 -59 -22 -35 0
-39 3 -61 50 -79 167 -80 170 -107 173 -15 2 -32 -5 -44 -18 -16 -18 -17 -24
-5 -59 15 -47 8 -80 -9 -38 -6 16 -11 39 -11 52 0 13 -7 30 -15 38 -12 13 -12
16 3 20 9 3 55 20 102 37 134 50 169 61 234 76 77 17 201 13 242 -9z m-1418
-38 c101 -21 140 -99 128 -257 -5 -64 -11 -88 -24 -98 -15 -11 -18 -8 -22 37
-6 52 -19 69 -57 69 -35 0 -53 -11 -68 -40 -13 -24 -19 -27 -42 -21 -26 7 -29
13 -34 67 -10 92 -46 163 -108 209 l-32 23 28 10 c37 14 170 15 231 1z m739
-81 c-3 -7 -5 -2 -5 12 0 14 2 19 5 13 2 -7 2 -19 0 -25z m-1033 -82 c7 -27 6
-28 -10 -15 -9 8 -25 27 -35 43 -14 23 -15 33 -6 47 11 17 13 16 28 -14 9 -17
19 -45 23 -61z m76 37 c37 -56 44 -96 36 -183 -6 -66 -5 -69 20 -89 34 -27 51
-27 60 1 6 20 7 20 19 -9 7 -17 18 -34 24 -37 18 -12 14 -66 -6 -66 -31 0
-233 123 -233 142 0 6 11 23 24 39 41 49 42 137 1 242 -14 34 23 7 55 -40z
m525 -169 c34 -116 33 -161 -1 -69 -14 39 -32 86 -40 105 -7 19 -13 53 -13 75
l1 40 14 -33 c8 -18 25 -71 39 -118z m632 94 c-3 -8 -6 -5 -6 6 -1 11 2 17 5
13 3 -3 4 -12 1 -19z m-356 -5 c13 -16 12 -17 -3 -4 -17 13 -22 21 -14 21 2 0
10 -8 17 -17z m360 -44 c-9 -22 -10 -22 -10 -3 -1 11 2 24 6 27 12 12 14 0 4
-24z m-1510 -51 c-70 -104 -78 -174 -26 -231 30 -32 40 -35 25 -8 -16 30 -12
32 13 8 13 -13 18 -25 12 -29 -6 -4 -1 -16 12 -30 22 -25 44 -107 36 -138 -6
-23 13 -60 32 -60 8 0 26 12 40 27 26 29 34 50 13 37 -7 -4 -8 -3 -4 5 4 6 11
9 16 6 4 -3 10 1 13 7 2 7 7 -1 11 -19 4 -18 15 -34 24 -37 16 -5 28 -26 51
-88 7 -18 7 -28 1 -28 -6 0 -10 9 -10 21 0 13 -4 18 -12 13 -7 -4 -8 -3 -4 4
4 7 3 19 -2 28 -20 36 -22 -7 -2 -45 11 -22 20 -43 20 -47 0 -25 -212 48 -265
91 -74 61 -77 51 -25 -80 59 -147 67 -161 119 -201 27 -21 50 -41 50 -44 0 -3
-57 -33 -127 -66 -105 -51 -141 -74 -205 -134 -61 -57 -77 -68 -77 -52 0 12
-5 24 -11 28 -8 4 -7 9 2 15 11 7 10 9 -3 9 -10 0 -18 5 -18 11 0 5 4 8 10 4
5 -3 14 12 19 33 12 41 44 86 55 75 3 -3 6 1 6 10 0 9 5 19 12 23 7 5 8 3 3
-7 -5 -8 11 4 36 26 65 58 71 64 65 73 -2 4 0 14 6 22 8 12 9 12 4 -2 -7 -23
6 -23 27 0 16 18 19 72 4 83 -5 3 -9 13 -11 21 -1 8 -10 28 -21 44 -16 25 -39
170 -28 183 1 2 3 -2 4 -10 0 -8 7 13 15 45 14 58 14 61 -11 108 -40 77 -32
149 29 238 38 56 107 132 114 125 3 -2 -14 -32 -37 -67z m1205 44 c-3 -5 4
-16 15 -25 10 -9 19 -14 19 -10 0 12 61 -51 79 -82 23 -37 34 -92 21 -100 -6
-4 -10 10 -10 32 0 50 -12 70 -29 49 -8 -10 -9 -21 -3 -33 15 -30 23 -73 13
-73 -8 0 -16 25 -36 118 -3 12 -1 22 5 22 5 0 10 -7 10 -17 0 -9 3 -13 7 -10
10 10 -18 57 -30 50 -6 -4 -7 -1 -2 7 6 10 4 12 -8 7 -16 -6 -72 55 -60 67 9
9 15 7 9 -2z m-1041 -61 c-6 -5 -25 10 -25 20 0 5 6 4 14 -3 8 -7 12 -15 11
-17z m386 -77 c-16 -54 -20 -61 -17 -29 4 42 25 109 32 102 3 -2 -4 -35 -15
-73z m-391 50 c0 -8 -4 -12 -10 -9 -5 3 -10 10 -10 16 0 5 5 9 10 9 6 0 10 -7
10 -16z m80 -34 l35 -31 -52 32 c-29 18 -53 36 -53 41 0 12 27 -5 70 -42z
m-80 -30 c0 -13 -1 -13 -10 0 -5 8 -10 22 -10 30 0 13 1 13 10 0 5 -8 10 -22
10 -30z m585 -2 c13 -67 15 -70 44 -63 19 4 35 0 53 -15 34 -26 48 -25 48 4 0
14 5 28 10 31 13 8 19 -160 6 -172 -2 -2 -32 7 -67 20 -35 13 -86 27 -112 31
-45 7 -50 11 -67 49 -37 84 -36 92 12 120 57 33 65 33 73 -5z m1308 -2 c52
-19 76 -42 103 -101 23 -49 33 -148 17 -158 -14 -8 -53 12 -53 28 0 27 -37
123 -60 155 -15 21 -30 30 -49 30 -50 0 -58 -23 -36 -110 10 -41 -115 -254
-137 -232 -6 6 -6 24 0 48 29 113 22 191 -18 201 -15 4 -19 13 -17 35 2 28 -2
31 -43 44 -24 7 -45 12 -46 11 -6 -9 -44 -178 -44 -199 0 -16 -9 -32 -25 -42
-16 -11 -27 -29 -31 -55 -10 -64 -17 -68 -63 -31 -23 18 -41 36 -41 39 0 11
68 188 85 222 28 55 66 102 76 92 8 -8 87 0 244 26 73 12 96 12 138 -3z
m-1886 -94 c0 -58 -7 -47 -13 19 -2 34 -1 48 5 39 5 -8 9 -34 8 -58z m1189
-17 c-9 -47 -37 -65 -35 -22 0 20 1 20 8 3 6 -15 9 -16 13 -5 3 8 4 24 3 36
-1 12 2 20 7 17 4 -3 6 -16 4 -29z m-1509 3 c-3 -8 -6 -5 -6 6 -1 11 2 17 5
13 3 -3 4 -12 1 -19z m286 -48 c4 -30 3 -38 -3 -25 -8 19 -14 83 -6 74 2 -2 6
-24 9 -49z m1265 10 c-7 -11 -16 -20 -20 -20 -11 0 -10 9 5 25 18 21 29 18 15
-5z m-864 -24 c2 -14 -1 -26 -5 -26 -5 0 -9 14 -9 32 0 36 10 32 14 -6z m829
-33 c-8 -21 -20 -15 -18 10 4 32 4 33 14 18 5 -8 7 -20 4 -28z m-1173 -6 c0
-5 -4 -5 -10 -2 -5 3 -10 14 -10 23 0 15 2 15 10 2 5 -8 10 -19 10 -23z m1147
-7 c1 -11 -3 -23 -9 -26 -7 -5 -8 -2 -3 7 5 8 -4 3 -18 -10 -15 -14 -27 -21
-27 -16 0 5 -2 6 -5 3 -3 -3 -3 -12 1 -21 5 -15 9 -14 26 6 l19 22 -10 -22
c-6 -12 -16 -25 -21 -28 -6 -4 -7 -11 -4 -17 5 -7 2 -8 -5 -4 -8 5 -12 3 -10
-5 3 -27 -1 -40 -12 -34 -6 4 -7 14 -4 24 4 9 9 27 11 41 5 24 5 24 -15 6 -42
-38 -19 0 27 45 55 54 57 56 59 29z m-795 -12 c-7 -7 -12 -8 -12 -2 0 6 3 14
7 17 3 4 9 5 12 2 2 -3 -1 -11 -7 -17z m-354 -23 c-12 -27 -23 -31 -34 -13 -5
7 -3 8 5 4 8 -5 14 0 18 13 3 12 9 21 14 21 5 0 3 -11 -3 -25z m1549 -18 c2
-23 0 -28 -7 -17 -12 18 -13 50 -2 50 4 0 8 -15 9 -33z m43 -26 c-12 -45 -25
-59 -34 -36 -3 8 0 14 6 12 6 -1 16 15 21 36 5 21 11 36 14 34 2 -3 -1 -23 -7
-46z m-546 -37 c3 -8 2 -12 -4 -9 -6 3 -10 -2 -10 -11 0 -10 -3 -15 -6 -11 -6
5 4 47 11 47 1 0 6 -7 9 -16z m-680 -174 c6 -21 5 -22 -4 -7 -15 24 -29 115
-21 141 3 13 8 -4 12 -44 3 -36 9 -76 13 -90z m1180 108 c-10 -11 -28 -24 -39
-30 -12 -6 -7 3 13 22 17 17 32 36 33 43 0 8 2 8 6 -1 3 -7 -3 -22 -13 -34z
m-486 8 c0 -21 -3 -23 -14 -11 -16 16 -19 29 -4 20 6 -3 10 -1 10 4 0 6 2 11
4 11 2 0 4 -11 4 -24z m819 2 c-3 -8 -6 -5 -6 6 -1 11 2 17 5 13 3 -3 4 -12 1
-19z m-849 -55 c1 9 7 17 12 17 7 0 7 -6 1 -19 -6 -10 -7 -22 -3 -27 4 -5 -1
-2 -10 5 -10 7 -18 10 -18 5 0 -4 -4 -4 -10 2 -6 6 -5 23 2 49 l12 40 7 -45
c3 -25 7 -37 7 -27z m569 -8 c0 -8 -4 -12 -9 -9 -4 3 -8 0 -8 -7 0 -7 -2 -10
-5 -7 -7 7 5 38 14 38 4 0 8 -7 8 -15z m-1489 -50 c6 -14 10 -25 8 -25 -2 0
-11 11 -20 25 -9 14 -13 25 -8 25 5 0 14 -11 20 -25z m878 -21 c-19 -19 -20
-14 -4 22 10 21 14 24 16 11 2 -9 -4 -24 -12 -33z m31 -2 c-6 -21 -16 -39 -24
-39 -7 0 -13 4 -13 9 0 4 4 8 9 8 5 0 14 14 20 30 14 43 20 37 8 -8z m-1317
18 c0 -5 -5 -10 -11 -10 -5 0 -7 5 -4 10 3 6 8 10 11 10 2 0 4 -4 4 -10z m146
-41 c0 -23 -11 -12 -21 20 -6 20 -5 22 7 11 7 -7 14 -21 14 -31z m2134 -29
c17 -10 17 -9 -32 -38 -43 -24 -44 -23 -23 18 16 31 30 36 55 20z m-161 -75
c-21 -35 -29 -42 -29 -26 0 9 39 61 45 61 3 0 -5 -16 -16 -35z m322 -16 c60
-38 109 -92 110 -122 3 -64 -6 -77 -61 -77 -33 0 -179 35 -189 46 -5 5 81 184
88 184 2 0 26 -14 52 -31z m-169 -53 c-11 -19 -22 -32 -26 -29 -4 4 -4 0 0
-10 3 -10 1 -17 -5 -17 -6 0 -10 -3 -9 -7 3 -13 -64 -143 -74 -143 -5 0 -7 -4
-3 -9 9 -16 -61 -124 -97 -150 -28 -20 -26 -17 10 19 25 24 41 48 38 56 -3 8
-1 14 3 14 5 0 8 11 7 25 -1 26 -16 36 -16 10 0 -8 -4 -15 -10 -15 -6 0 -5 10
2 25 13 30 33 28 32 -3 0 -12 3 -19 8 -16 4 3 8 13 8 22 0 9 7 30 15 46 22 42
18 56 -6 17 -11 -18 -23 -31 -26 -28 -3 3 5 20 17 37 16 23 25 28 35 20 9 -8
12 -4 12 17 1 46 7 58 51 104 23 24 42 48 42 53 0 5 3 7 6 4 3 -3 -3 -22 -14
-42z m-1982 -26 c-8 -5 -22 -9 -30 -9 -10 0 -8 3 5 9 27 12 43 12 25 0z m63 3
c-7 -2 -21 -2 -30 0 -10 3 -4 5 12 5 17 0 24 -2 18 -5z m100 -10 c-7 -2 -21
-2 -30 0 -10 3 -4 5 12 5 17 0 24 -2 18 -5z m507 -3 c13 -9 13 -10 0 -9 -8 0
-24 4 -35 9 l-20 9 20 0 c11 0 27 -4 35 -9z m-725 -10 c-3 -5 -12 -10 -18 -10
-7 0 -6 4 3 10 19 12 23 12 15 0z m795 -32 c0 -2 -19 -21 -42 -43 -24 -22 -36
-31 -28 -20 19 26 70 72 70 63z m1065 -89 c-22 -22 -53 -47 -68 -56 -27 -13
-28 -13 -25 4 2 10 11 17 20 17 8 -1 33 16 54 37 52 51 68 50 19 -2z m-2270 1
c3 -5 1 -10 -4 -10 -6 0 -11 5 -11 10 0 6 2 10 4 10 3 0 8 -4 11 -10z m1375 6
c0 -2 -7 -7 -16 -10 -8 -3 -12 -2 -9 4 6 10 25 14 25 6z m-260 -26 c-6 -11
-13 -20 -16 -20 -2 0 0 9 6 20 6 11 13 20 16 20 2 0 0 -9 -6 -20z m-22 -55
c-6 -14 -13 -23 -15 -21 -5 5 15 46 22 46 3 0 -1 -11 -7 -25z m1065 18 c-7 -2
-19 -2 -25 0 -7 3 -2 5 12 5 14 0 19 -2 13 -5z m-50 -10 c-7 -2 -21 -2 -30 0
-10 3 -4 5 12 5 17 0 24 -2 18 -5z m398 -104 c17 -42 5 -126 -51 -344 -34
-135 -48 -178 -49 -150 -1 22 -10 77 -21 123 -29 122 -27 165 12 214 59 75 69
183 21 224 -15 13 -23 27 -18 34 9 15 89 -61 106 -101z m-914 64 c-3 -10 -5
-4 -5 12 0 17 2 24 5 18 2 -7 2 -21 0 -30z m-1467 14 l25 2 -25 -8 -25 -8 25
-5 c21 -5 19 -5 -7 -5 -17 1 -30 4 -27 8 2 4 0 10 -6 14 -5 3 -10 -1 -10 -9 0
-9 -7 -16 -17 -16 -14 0 -14 2 2 20 10 11 23 16 29 13 6 -4 22 -7 36 -6z
m1570 -64 c-11 -17 -11 -17 -6 0 3 10 7 33 8 50 l1 32 4 -32 c2 -18 -1 -41 -7
-50z m-514 32 c-15 -23 -15 -25 1 -22 10 1 25 7 33 12 13 8 13 7 1 -8 -7 -9
-18 -14 -24 -10 -6 4 -8 0 -4 -11 4 -10 3 -15 -3 -11 -6 3 -10 -1 -10 -9 0 -9
-13 -30 -30 -48 -24 -28 -29 -30 -30 -14 0 11 3 16 6 13 4 -3 16 5 27 19 16
20 17 28 7 37 -8 8 -11 8 -7 1 4 -6 -3 -20 -15 -30 l-21 -19 17 33 c9 17 21
32 26 32 6 0 9 3 8 8 -2 11 24 63 30 57 3 -2 -3 -16 -12 -30z m361 3 c-3 -8
-6 -5 -6 6 -1 11 2 17 5 13 3 -3 4 -12 1 -19z m478 13 c-6 -6 -30 -12 -55 -15
l-45 -6 50 14 c28 7 52 14 55 15 2 0 0 -3 -5 -8z m42 3 c-3 -3 -12 -4 -19 -1
-8 3 -5 6 6 6 11 1 17 -2 13 -5z m185 -6 c-19 -19 -14 -32 6 -17 9 7 6 1 -8
-13 -25 -26 -76 -57 -197 -120 -34 -17 -60 -36 -57 -40 3 -4 -2 -8 -10 -8 -28
0 -17 16 27 39 46 24 84 46 136 78 19 12 37 21 40 19 3 -2 14 5 24 16 9 10 14
18 10 18 -3 0 2 9 12 20 10 11 21 20 24 20 3 0 0 -5 -7 -12z m-2065 -4 c-3 -3
-12 -4 -19 -1 -8 3 -5 6 6 6 11 1 17 -2 13 -5z m50 0 c-3 -3 -12 -4 -19 -1 -8
3 -5 6 6 6 11 1 17 -2 13 -5z m894 -25 c-5 -13 -10 -19 -10 -12 -1 15 10 45
15 40 3 -2 0 -15 -5 -28z m-834 15 c-3 -3 -12 -4 -19 -1 -8 3 -5 6 6 6 11 1
17 -2 13 -5z m1128 -94 l17 -38 -30 -44 c-49 -71 -59 -76 -66 -31 -12 81 -18
192 -11 203 10 16 68 -42 90 -90z m-1150 63 c44 -8 112 -27 150 -40 85 -31
205 -99 205 -117 0 -7 -11 -23 -24 -35 l-24 -22 -23 29 c-31 39 -92 58 -174
56 -66 -2 -67 -1 -102 37 -23 26 -49 42 -77 49 -57 15 -114 40 -128 58 -11 13
-4 14 52 8 36 -4 101 -14 145 -23z m642 -20 c-3 -10 -5 -4 -5 12 0 17 2 24 5
18 2 -7 2 -21 0 -30z m129 -53 c-1 -49 -3 -90 -6 -90 -3 1 -14 7 -24 15 -15
12 -19 25 -17 57 2 43 27 108 41 108 4 0 7 -40 6 -90z m29 33 c-9 -50 -17 -34
-9 18 4 24 9 38 12 31 2 -7 1 -29 -3 -49z m461 -7 l-14 -28 0 36 c0 20 4 33 9
30 5 -3 10 3 10 13 1 15 2 14 6 -3 2 -11 -3 -33 -11 -48z m-703 -19 c2 -32 0
-52 -4 -45 -5 7 -8 38 -8 68 1 66 6 56 12 -23z m1024 26 c-3 -10 -5 -4 -5 12
0 17 2 24 5 18 2 -7 2 -21 0 -30z m-875 -15 c-6 -6 -7 0 -4 19 5 21 7 23 10 9
2 -10 0 -22 -6 -28z m111 -85 c-17 -32 -33 -43 -33 -23 0 6 5 10 10 10 6 0 9
3 8 8 -1 4 4 20 11 36 6 15 11 33 10 40 -1 6 0 20 2 31 1 11 4 0 6 -24 3 -30
-2 -55 -14 -78z m585 62 c-12 -24 -26 -41 -31 -38 -6 3 -7 1 -3 -6 4 -6 0 -14
-8 -17 -9 -3 -16 -11 -16 -17 0 -6 15 4 34 22 l34 33 15 -29 c16 -29 16 -29
-12 -25 -19 3 -37 -4 -61 -24 -27 -23 -31 -25 -22 -7 6 11 8 24 4 28 -4 3 2
13 12 21 11 8 16 14 11 14 -5 0 1 9 14 21 12 11 24 34 28 50 3 16 9 26 14 23
5 -2 -1 -25 -13 -49z m-707 -3 c6 9 9 3 9 -17 l-1 -30 -29 35 c-16 19 -29 40
-29 45 0 6 9 -3 21 -18 16 -22 23 -25 29 -15z m585 -25 c-9 -24 -22 -44 -30
-44 -9 0 -6 11 10 35 13 19 24 42 24 50 0 8 3 12 6 9 4 -4 -1 -26 -10 -50z
m87 41 c-63 -103 -111 -154 -146 -156 -4 0 -19 -8 -32 -16 -21 -14 -24 -14
-19 -1 4 8 11 15 17 15 6 0 7 3 4 6 -9 9 12 46 23 39 4 -3 11 1 14 7 3 7 4 4
3 -7 -2 -11 -9 -19 -15 -17 -13 2 -16 -10 -6 -21 10 -10 41 15 39 32 -1 9 0
10 2 4 3 -7 9 -13 14 -13 6 0 7 5 3 12 -4 7 -3 8 4 4 11 -6 16 6 13 27 0 4 3
7 8 7 6 0 24 20 42 45 30 41 51 63 32 33z m180 -30 c-10 -21 -10 -21 -9 9 1
19 5 28 10 23 6 -6 5 -18 -1 -32z m543 -10 c-41 -65 -76 -112 -76 -101 0 6 14
28 31 49 17 22 38 54 46 73 8 18 17 31 20 28 3 -4 -7 -25 -21 -49z m-2183 20
c42 -10 47 -14 47 -39 0 -15 12 -42 26 -59 26 -31 26 -31 7 -53 -32 -37 -44
-76 -37 -123 l6 -44 -32 0 c-50 0 -85 33 -130 123 -48 94 -47 117 1 179 22 27
37 37 48 33 9 -4 37 -11 64 -17z m1708 -1 c36 10 52 -16 46 -72 -7 -69 -39
-134 -92 -186 -46 -45 -71 -59 -92 -52 -26 10 -12 33 40 67 63 39 90 71 112
130 34 88 -7 130 -59 62 -18 -24 -32 -33 -44 -30 -14 5 -15 4 -2 -5 17 -12 2
-15 -17 -3 -9 6 -8 12 6 24 12 10 22 13 29 6 6 -6 16 4 28 30 11 22 20 36 22
32 2 -4 12 -6 23 -3z m289 8 c0 -5 -68 -41 -108 -56 -39 -15 -20 0 40 31 55
29 68 33 68 25z m-1400 -19 c0 -8 -4 -18 -10 -21 -6 -4 -2 -21 10 -45 11 -22
20 -51 20 -65 0 -35 24 -79 54 -99 14 -9 28 -16 31 -16 12 0 4 35 -12 52 -13
14 -14 21 -5 30 9 9 15 9 24 0 7 -7 22 -12 35 -12 l23 0 -21 41 c-18 36 -19
45 -8 68 13 26 13 26 17 4 2 -13 10 -23 17 -23 8 0 26 -21 41 -46 26 -45 27
-46 39 -24 12 22 13 21 26 -21 10 -31 23 -48 44 -59 l30 -15 -27 -3 c-15 -2
-36 2 -47 7 -27 15 -41 14 -41 -4 0 -11 12 -15 47 -15 37 0 44 -3 35 -12 -22
-22 -13 -49 67 -209 44 -86 77 -160 74 -163 -6 -6 -59 33 -128 93 -60 52 -99
111 -146 224 -23 56 -46 106 -51 112 -13 15 -9 -12 7 -52 8 -20 13 -38 11 -40
-8 -8 -81 35 -108 64 -58 60 -102 198 -79 242 13 24 31 28 31 7z m291 -13 c-8
-15 -10 -15 -11 -2 0 17 10 32 18 25 2 -3 -1 -13 -7 -23z m839 -29 c0 -30 -14
-60 -43 -91 -24 -27 -39 -30 -30 -5 6 15 5 15 -10 4 -8 -8 -25 -12 -37 -10
-19 3 -29 -17 -94 -180 l-73 -184 -77 -76 c-79 -78 -93 -75 -39 7 14 22 25 43
23 47 -1 4 4 10 10 14 7 4 17 47 22 96 6 49 19 106 29 127 17 32 24 37 54 37
19 0 35 5 35 11 0 7 -14 8 -40 4 -59 -10 -190 -13 -195 -4 -7 10 22 19 40 13
28 -11 63 5 73 33 5 17 26 37 51 51 44 25 49 22 26 -18 -19 -33 -19 -46 0 -30
9 7 38 24 66 36 29 14 48 28 44 34 -8 13 12 40 29 40 6 0 2 -7 -8 -15 -35 -27
-8 -27 31 -1 20 14 45 26 54 26 10 0 22 13 28 30 12 37 31 39 31 4z m-710 -30
c0 -28 10 -45 50 -88 41 -44 48 -55 36 -65 -10 -9 -26 -2 -74 33 -33 24 -63
49 -67 55 -7 12 11 78 27 98 16 20 28 5 28 -33z m-60 21 c-7 -8 -18 -15 -25
-15 -8 0 -11 -8 -8 -22 4 -19 3 -20 -6 -8 -6 8 -11 12 -11 8 0 -3 -3 -14 -7
-24 -4 -12 -3 -15 5 -10 7 4 12 2 12 -3 0 -6 -5 -11 -11 -11 -5 0 -7 -4 -4
-10 3 -5 1 -10 -5 -10 -7 0 -10 7 -7 15 4 8 2 17 -3 20 -6 4 -10 11 -10 16 0
6 4 8 9 5 5 -3 14 8 21 25 8 18 18 28 26 25 7 -3 16 -1 19 4 4 6 9 10 12 10 3
0 0 -7 -7 -15z m620 5 c0 -5 -5 -10 -11 -10 -5 0 -7 5 -4 10 3 6 8 10 11 10 2
0 4 -4 4 -10z m285 -10 c3 -5 -1 -10 -9 -10 -9 0 -16 5 -16 10 0 6 4 10 9 10
6 0 13 -4 16 -10z m48 -17 c-7 -2 -19 -2 -25 0 -7 3 -2 5 12 5 14 0 19 -2 13
-5z m32 -3 c3 -5 1 -10 -4 -10 -6 0 -11 5 -11 10 0 6 2 10 4 10 3 0 8 -4 11
-10z m-690 -30 c3 -5 2 -10 -2 -10 -5 0 -19 -18 -33 -40 -14 -22 -30 -40 -37
-40 -25 0 -13 44 20 71 35 31 43 34 52 19z m833 -12 c6 -1 12 -6 12 -11 0 -5
-6 -7 -12 -4 -50 20 -51 20 -43 7 6 -10 4 -12 -8 -7 -10 3 -17 2 -17 -3 0 -6
-7 -10 -15 -10 -8 0 -15 6 -15 14 0 16 34 26 65 19 11 -2 26 -5 33 -5z m-1878
-11 c0 -6 -4 -27 -10 -46 -11 -40 -2 -129 12 -109 6 9 7 6 3 -9 -8 -28 4 -75
18 -66 6 3 7 1 3 -5 -7 -12 43 -66 89 -96 78 -51 155 -34 323 71 57 36 109 63
115 60 7 -2 20 -26 30 -53 38 -99 38 -100 6 -144 -35 -49 -56 -59 -72 -36 -12
16 -14 16 -31 -3 -24 -27 -40 -26 -58 0 -12 19 -16 20 -35 8 -17 -10 -27 -10
-48 -1 -47 22 -68 15 -100 -33 -32 -48 -31 -48 -172 -49 -29 -1 -46 -7 -56
-20 -13 -18 -16 -18 -80 8 -36 14 -80 29 -97 32 l-30 6 15 -42 c8 -23 15 -46
15 -50 0 -5 -39 -34 -87 -66 -180 -120 -207 -163 -249 -400 -30 -169 -28 -216
9 -345 24 -81 31 -141 27 -219 l-2 -35 -9 30 c-7 27 -8 27 -5 -10 1 -22 6 -49
10 -60 8 -20 7 -20 -8 -1 -9 11 -16 31 -16 45 -1 48 -27 99 -92 183 -75 96
-95 115 -95 93 0 -8 5 -11 10 -8 6 3 7 1 3 -6 -10 -16 -26 -4 -26 20 0 11 -7
30 -15 43 -27 41 -41 172 -27 251 10 50 10 50 11 -30 1 -44 7 -91 14 -105 32
-63 112 3 102 83 -5 39 -15 64 -15 38 0 -7 -5 -9 -10 -6 -8 5 -7 11 1 21 6 7
16 11 23 7 6 -4 5 1 -3 10 -12 15 -12 17 4 11 17 -7 18 -2 12 68 -5 53 -3 78
6 87 9 10 8 11 -5 6 -13 -5 -18 -2 -18 9 0 9 6 15 13 13 6 -1 12 5 12 13 0 8
6 19 13 23 6 4 12 13 12 18 0 6 -4 7 -10 4 -5 -3 -10 1 -10 10 0 9 5 13 10 10
14 -8 13 8 -1 22 -9 9 -7 12 8 10 14 -1 19 -7 17 -17 -2 -8 5 3 16 25 11 22
18 50 15 62 -5 23 -97 115 -145 146 -29 18 -29 18 -9 38 21 21 39 25 39 9 0
-5 5 -10 11 -10 5 0 7 5 4 10 -3 6 -1 10 5 10 6 0 8 5 5 11 -9 13 32 -10 59
-33 11 -10 21 -33 22 -54 2 -20 7 -41 12 -48 17 -21 23 -47 9 -41 -6 4 -3 -1
7 -9 11 -9 16 -16 10 -16 -5 0 -1 -5 9 -11 20 -12 33 -6 47 24 10 22 10 22 -6
0 -9 -13 -22 -23 -28 -23 -7 0 -7 3 -1 8 6 4 15 16 21 27 7 11 19 19 27 19 8
-1 18 7 20 17 3 11 1 19 -4 19 -14 0 -11 68 5 98 8 15 29 38 48 51 l33 24 -38
-40 c-26 -27 -40 -52 -43 -77 -6 -47 2 -46 22 4 20 51 38 60 111 60 64 0 75 8
112 77 11 21 20 32 21 25 0 -7 -11 -34 -25 -59 -30 -58 -23 -69 16 -23 19 23
31 50 35 83 8 56 24 45 24 -16 0 -34 3 -38 23 -35 15 2 24 12 28 33 l6 30 2
-32 c1 -27 -6 -37 -36 -59 -30 -20 -33 -24 -13 -19 48 13 70 34 70 65 0 33
-33 124 -79 218 -44 89 -42 110 17 149 52 36 62 39 62 20z m1340 9 c0 -2 -8
-10 -17 -17 -16 -13 -17 -12 -4 4 13 16 21 21 21 13z m424 -21 c-7 -17 -20
-20 -28 -6 -4 5 0 12 6 14 23 9 28 7 22 -8z m-49 -5 c-3 -5 -1 -10 6 -10 7 0
10 -2 7 -5 -3 -3 -13 -2 -22 1 -14 5 -15 9 -4 15 17 11 20 11 13 -1z m-1372
-33 c15 -6 27 -15 27 -20 0 -4 -10 -3 -21 4 -12 6 -57 12 -100 13 -44 0 -79 2
-79 3 0 1 15 7 33 12 36 11 99 6 140 -12z m397 -12 c0 -7 7 -18 15 -25 12 -10
18 -10 30 0 9 7 19 10 22 6 4 -4 1 -11 -7 -16 -9 -5 -2 -8 20 -7 45 3 50 -19
5 -26 -43 -7 -130 36 -121 60 3 8 6 22 6 30 0 13 3 13 15 3 8 -7 15 -18 15
-25z m932 28 c-6 -2 -9 -10 -5 -16 4 -6 0 -8 -9 -4 -9 3 -19 2 -24 -3 -11 -10
-91 -43 -81 -33 12 11 111 62 122 62 6 0 4 -3 -3 -6z m201 -8 c-3 -9 -8 -14
-10 -11 -3 3 -2 9 2 15 9 16 15 13 8 -4z m-723 -40 c-7 -8 -20 -15 -29 -15
-12 0 -10 5 9 20 28 21 39 18 20 -5z m-375 5 c3 -5 1 -10 -4 -10 -6 0 -11 5
-11 10 0 6 2 10 4 10 3 0 8 -4 11 -10z m1075 -35 c-15 -64 -13 -71 13 -49 l22
19 -20 -23 c-11 -13 -25 -36 -31 -50 -10 -23 -11 -17 -6 38 5 63 18 117 27
109 2 -3 0 -22 -5 -44z m-865 -14 c-3 -8 0 -18 7 -23 9 -5 5 -8 -12 -8 -24 0
-25 3 -22 42 4 39 6 40 18 23 8 -11 12 -26 9 -34z m-964 2 c-12 -20 -14 -14
-5 12 4 9 9 14 11 11 3 -2 0 -13 -6 -23z m1870 4 c-10 -9 -11 -8 -5 6 3 10 9
15 12 12 3 -3 0 -11 -7 -18z m-1991 -42 c0 -5 -5 -3 -10 5 -5 8 -10 20 -10 25
0 6 5 3 10 -5 5 -8 10 -19 10 -25z m1600 21 c0 -2 -7 -7 -16 -10 -8 -3 -12 -2
-9 4 6 10 25 14 25 6z m67 -25 c6 -3 -18 -7 -55 -8 -66 -1 -66 -1 -32 12 33
12 59 11 87 -4z m-677 2 c0 -3 -7 -15 -16 -25 -16 -17 -18 -17 -30 0 -20 26
-17 32 16 32 17 0 30 -3 30 -7z m236 -2 c-3 -5 -22 -18 -41 -30 -31 -18 -36
-18 -50 -5 -29 30 -23 33 78 42 10 1 16 -2 13 -7z m-1191 -76 l26 -60 -33 35
c-34 37 -40 53 -31 77 7 18 6 19 38 -52z m2012 13 c-3 -7 -5 -2 -5 12 0 14 2
19 5 13 2 -7 2 -19 0 -25z m-1878 -32 c-9 -8 -10 -7 -5 7 3 10 7 24 7 30 1 7
3 4 6 -7 3 -10 -1 -23 -8 -30z m1273 -67 c4 -35 10 -109 14 -164 4 -55 9 -92
11 -82 7 27 28 20 62 -18 36 -42 39 -59 11 -78 -11 -8 -22 -27 -26 -43 -5 -28
-7 -29 -66 -28 -55 1 -63 5 -96 37 l-36 36 32 103 c18 57 35 119 38 138 l6 35
-25 -30 c-17 -21 -26 -46 -30 -86 -3 -30 -12 -70 -21 -87 -9 -18 -21 -56 -26
-84 -14 -72 -29 -83 -107 -79 -27 1 -23 16 17 76 32 46 84 149 95 185 4 14 26
66 48 115 64 145 88 158 99 54z m-1425 39 c-3 -8 -6 -5 -6 6 -1 11 2 17 5 13
3 -3 4 -12 1 -19z m2030 -30 c-2 -13 -4 -5 -4 17 -1 22 1 32 4 23 2 -10 2 -28
0 -40z m-2005 -22 c-6 -48 -12 -46 -12 5 0 22 4 38 8 35 4 -3 6 -21 4 -40z
m25 12 c-3 -8 -6 -5 -6 6 -1 11 2 17 5 13 3 -3 4 -12 1 -19z m1840 -40 c-2
-13 -4 -5 -4 17 -1 22 1 32 4 23 2 -10 2 -28 0 -40z m130 -20 c-3 -7 -5 -2 -5
12 0 14 2 19 5 13 2 -7 2 -19 0 -25z m-1257 -68 c20 -60 41 -260 27 -260 -10
0 -46 70 -57 109 -6 22 -15 76 -21 121 -17 141 9 156 51 30z m1232 10 c4 0 8
-4 8 -10 0 -19 -17 -10 -28 15 -15 33 -14 48 0 18 6 -13 15 -23 20 -23z m-385
-2 c35 -38 53 -85 53 -139 0 -33 -5 -42 -37 -63 -35 -24 -53 -26 -53 -5 0 5
-20 40 -45 76 -38 55 -45 72 -40 97 8 37 38 66 69 66 12 0 36 -15 53 -32z
m470 10 c-3 -8 -6 -5 -6 6 -1 11 2 17 5 13 3 -3 4 -12 1 -19z m-1687 3 c0 -5
-12 -34 -26 -65 -14 -32 -24 -60 -21 -63 3 -3 34 25 68 61 33 36 65 66 70 66
21 0 7 -31 -25 -55 -21 -16 -47 -53 -68 -96 -23 -48 -40 -71 -56 -75 -13 -4
-21 -9 -18 -12 3 -3 1 -11 -4 -17 -7 -9 -7 -21 0 -40 11 -29 3 -56 -10 -35 -8
14 -30 5 -30 -11 0 -6 4 -8 9 -5 5 4 7 -13 5 -36 -3 -37 -2 -39 5 -13 8 29 9
29 11 5 1 -14 4 -19 7 -12 3 9 11 6 25 -10 11 -13 15 -24 9 -26 -16 -5 -14
-22 2 -22 7 0 23 -22 35 -48 12 -26 31 -58 42 -70 11 -11 17 -28 14 -36 -7
-18 -24 -22 -24 -6 0 6 5 10 10 10 12 0 -21 49 -32 50 -5 0 -8 -6 -8 -14 0 -8
3 -16 8 -19 4 -2 1 -2 -6 0 -8 2 -4 -8 8 -25 24 -30 72 -39 63 -12 -3 8 6 2
21 -15 14 -16 25 -36 26 -42 0 -7 4 -13 9 -13 5 0 17 -19 26 -42 31 -78 31
-75 12 -59 -9 7 -17 22 -17 32 0 11 -5 19 -11 19 -5 0 -7 -5 -3 -12 4 -7 3 -8
-4 -4 -9 5 -9 13 -2 27 7 11 7 19 1 19 -5 0 -11 -6 -14 -12 -5 -14 -23 2 -130
120 -37 41 -67 80 -67 89 0 8 -7 21 -15 29 -14 14 -21 60 -17 107 1 11 -2 15
-9 11 -8 -5 -10 22 -7 97 4 90 9 113 35 169 16 36 42 77 56 93 26 27 47 35 47
18z m1441 -28 c3 -18 11 -39 16 -45 6 -7 14 -30 17 -52 7 -35 10 -38 34 -33
38 8 115 -46 144 -100 22 -42 52 -59 82 -47 20 8 20 -5 1 -30 -8 -10 -12 -23
-9 -27 7 -12 -33 -238 -51 -290 -9 -24 -30 -62 -48 -84 -63 -81 -117 -138
-118 -124 0 10 -2 11 -6 1 -2 -6 -9 -9 -15 -6 -6 4 -8 -1 -3 -15 3 -11 2 -21
-3 -21 -16 0 -21 25 -8 41 11 16 16 18 39 20 6 0 4 3 -5 7 -16 7 -16 9 2 32
11 14 45 67 75 117 54 92 55 93 54 170 l-1 78 -32 -95 c-18 -55 -50 -121 -74
-156 -23 -34 -42 -67 -42 -73 0 -6 -3 -11 -8 -11 -4 0 -16 -16 -26 -35 -11
-19 -21 -33 -23 -31 -3 2 0 13 6 24 12 22 -2 34 -26 24 -14 -5 -18 -38 -5 -45
4 -2 2 -3 -4 -1 -6 1 -16 -2 -22 -8 -6 -6 -4 7 3 28 7 22 13 64 12 96 -1 31 1
51 5 45 12 -20 20 0 9 21 -11 21 -5 52 10 52 5 0 9 7 9 15 0 17 -27 10 -50
-14 -13 -13 -13 -14 3 -8 9 3 17 2 17 -2 0 -21 -28 -17 -40 5 -8 13 -17 24
-22 24 -16 0 -8 58 9 64 10 4 14 4 11 0 -9 -8 9 -44 21 -44 5 0 8 8 7 18 -2 9
2 20 8 24 7 5 3 8 -8 8 -17 0 -18 2 -4 18 8 9 20 30 27 46 11 28 11 29 -6 16
-10 -7 -5 0 10 16 15 16 34 38 42 49 9 13 17 17 23 10 6 -6 -1 -32 -19 -70
-16 -33 -29 -54 -29 -47 0 7 7 27 16 43 8 17 14 35 12 40 -2 5 -12 -11 -24
-36 -17 -37 -18 -47 -7 -56 10 -9 20 4 48 62 43 92 57 186 30 213 -32 31 -50
16 -53 -44 -3 -52 -25 -96 -42 -85 -5 3 -18 -10 -30 -29 -13 -22 -26 -33 -35
-29 -8 3 -12 10 -8 17 4 6 9 19 10 30 2 10 20 48 40 84 l37 66 -49 -29 c-28
-16 -56 -36 -63 -44 -11 -13 -12 -13 -7 -1 4 8 -4 2 -18 -13 -14 -16 -29 -28
-33 -27 -4 0 -9 -6 -10 -14 -1 -8 -20 -32 -42 -53 l-40 -38 -15 25 c-14 23
-13 28 9 60 13 19 24 29 24 22 0 -7 5 -12 11 -12 5 0 7 5 3 12 -5 7 -2 9 9 5
14 -5 47 29 47 50 0 4 -9 -5 -19 -20 -10 -16 -21 -25 -25 -19 -3 5 6 20 19 32
14 13 25 20 25 15 0 -5 12 3 28 18 15 14 52 37 83 51 59 26 69 40 69 102 0 51
-42 71 -84 39 -37 -28 -51 -8 -20 26 12 13 29 17 62 16 43 -2 47 -4 53 -34z
m308 0 c0 -25 -1 -25 -8 -8 -5 11 -7 23 -4 28 8 14 13 7 12 -20z m-1466 -69
c2 -48 -4 -70 -27 -115 -16 -31 -26 -64 -23 -73 4 -9 28 -29 55 -46 31 -19 71
-59 108 -108 32 -42 62 -79 66 -82 4 -4 1 -16 -8 -28 -28 -41 -105 -22 -128
30 -8 18 -26 59 -40 90 -19 44 -33 61 -63 76 -21 11 -48 32 -60 46 -13 14 -27
26 -32 26 -16 0 -31 69 -21 95 10 27 94 133 124 157 31 25 47 3 49 -68z
m-1036 9 c-3 -10 -5 -2 -5 17 0 19 2 27 5 18 2 -10 2 -26 0 -35z m334 6 c26
-8 52 -28 79 -60 23 -27 50 -53 60 -59 18 -10 19 -7 13 54 -6 64 -6 65 18 59
13 -3 39 -19 57 -36 30 -29 32 -35 32 -104 0 -58 -3 -73 -15 -73 -8 0 -12 -6
-9 -14 4 -10 0 -13 -13 -11 -10 1 -17 7 -16 12 1 4 5 21 8 36 6 21 4 27 -9 27
-24 0 -32 -25 -55 -167 -12 -73 -24 -140 -27 -148 -8 -19 -24 -10 -24 13 0 15
2 15 11 2 9 -13 10 -13 6 0 -2 8 -12 15 -22 15 -10 0 -20 6 -23 14 -3 8 0 11
7 7 6 -4 11 -5 11 -2 0 2 3 13 6 23 5 15 4 16 -5 3 -9 -12 -11 -6 -9 24 1 24
-2 41 -10 44 -7 2 -10 8 -6 13 3 5 1 9 -3 9 -5 0 -10 -21 -11 -47 -4 -81 -27
-198 -39 -198 -6 0 -15 -3 -19 -7 -4 -5 0 -8 9 -8 9 0 17 -5 17 -11 0 -5 -4
-7 -10 -4 -18 11 -32 -5 -19 -21 6 -8 9 -27 6 -42 -3 -15 -2 -34 4 -42 6 -10
9 2 10 40 l0 55 26 -65 c15 -36 26 -82 26 -104 0 -21 3 -33 7 -26 5 7 18 -17
35 -61 16 -41 35 -85 44 -98 14 -22 13 -25 -5 -39 -13 -10 -14 -13 -3 -9 11 4
20 -3 28 -20 7 -14 14 -23 18 -20 3 4 0 13 -7 21 -6 9 -10 21 -8 27 4 13 41
-57 41 -78 0 -7 4 -13 9 -13 4 0 8 -5 8 -11 0 -18 -30 11 -31 30 0 10 -2 12
-6 3 -3 -8 -11 -4 -25 14 -16 20 -23 23 -29 12 -5 -7 -9 -20 -9 -28 0 -12 2
-12 9 -2 6 10 10 3 15 -23 4 -20 9 -42 12 -49 3 -7 -1 -13 -9 -13 -9 0 -20 25
-31 72 -9 40 -16 76 -14 81 5 17 -24 56 -37 50 -9 -3 -12 0 -8 10 4 11 9 12
19 3 11 -9 14 -8 14 5 0 9 -5 16 -11 16 -5 0 -7 5 -4 11 5 6 12 4 21 -8 10
-13 9 -5 -3 30 -10 26 -21 47 -25 47 -4 0 -5 -8 -2 -17 5 -14 4 -15 -4 -4 -6
8 -8 20 -5 28 3 7 -2 16 -11 19 -27 10 -78 123 -72 158 3 17 3 25 0 19 -13
-28 -24 -10 -24 40 -1 28 -5 85 -9 126 -5 41 -6 84 -1 95 9 25 -33 71 -74 82
-14 3 -26 10 -26 15 0 10 82 59 98 59 25 0 11 -20 -24 -35 -33 -13 -39 -34
-11 -35 7 -1 27 -14 46 -30 19 -16 36 -28 37 -27 2 1 -4 31 -13 65 -13 51 -13
68 -4 86 10 18 9 39 -8 110 -12 48 -21 89 -21 92 0 6 10 5 51 -7z m486 -43
c-7 -13 -14 -23 -18 -21 -3 2 -6 -8 -6 -23 -1 -28 -14 -65 -35 -94 -11 -16 -4
-67 20 -138 3 -10 2 -12 -5 -5 -14 15 -33 87 -33 129 0 25 4 36 15 36 8 0 15
7 15 16 0 8 -4 12 -10 9 -5 -3 -10 -2 -10 4 0 16 18 22 23 9 4 -9 6 -8 6 3 1
8 -4 20 -9 25 -7 7 0 21 21 42 38 38 41 39 26 8z m1648 -4 c-3 -3 -11 0 -18 7
-9 10 -8 11 6 5 10 -3 15 -9 12 -12z m15 -16 c0 -3 -4 -8 -10 -11 -5 -3 -10
-1 -10 4 0 6 5 11 10 11 6 0 10 -2 10 -4z m-82 -36 c13 -16 19 -30 14 -30 -4
0 -16 14 -25 30 -10 17 -16 30 -14 30 2 0 13 -13 25 -30z m147 -60 c9 -32 3
-25 -19 20 -12 25 -13 31 -3 20 8 -8 18 -26 22 -40z m-2275 18 c-1 -32 -48
-95 -90 -118 -25 -14 -46 -32 -48 -40 -4 -19 -22 -30 -37 -23 -26 9 -74 -70
-107 -174 -18 -57 -34 -99 -36 -94 -6 17 49 245 69 286 34 74 159 173 217 174
19 1 32 -4 32 -11z m-426 -24 c3 -8 2 -12 -4 -9 -6 3 -10 10 -10 16 0 14 7 11
14 -7z m846 -18 c0 -3 -4 -8 -10 -11 -5 -3 -10 -1 -10 4 0 6 5 11 10 11 6 0
10 -2 10 -4z m2040 -41 c28 -30 23 -39 -14 -25 -35 13 -66 13 -66 -1 0 -5 11
-27 25 -47 14 -20 21 -38 16 -40 -19 -6 -101 37 -101 53 0 12 -8 16 -32 13
-28 -2 -34 1 -36 19 -3 18 3 23 30 27 18 3 56 10 83 15 28 5 55 9 61 10 6 0
21 -10 34 -24z m-2987 -28 c9 -8 17 -19 17 -24 0 -6 6 -16 14 -22 15 -13 29
-64 15 -55 -5 3 -9 -2 -9 -10 0 -9 5 -15 11 -13 6 1 14 -4 17 -12 3 -9 0 -11
-8 -6 -10 6 -11 1 -7 -21 6 -27 5 -27 -9 5 -9 19 -13 45 -9 58 4 16 2 22 -4
18 -7 -3 -8 0 -5 9 3 9 1 16 -5 16 -6 0 -11 9 -11 20 0 14 -5 18 -17 14 -15
-5 -16 -4 -3 5 13 9 13 11 0 12 -8 1 -20 1 -27 0 -6 -1 -15 4 -19 10 -5 9 -2
10 12 6 18 -7 18 -6 -1 8 -11 9 -21 11 -23 6 -2 -5 -11 -7 -19 -4 -14 6 -14 7
3 13 19 7 51 -5 87 -33z m1544 -39 c21 -77 14 -99 -19 -58 -19 23 -27 130 -9
130 5 0 18 -33 28 -72z m502 43 c7 -5 12 -13 10 -17 -10 -24 -143 -203 -147
-199 -3 2 1 11 8 20 25 31 1 26 -37 -7 -75 -66 -96 -80 -105 -66 -16 26 -7 47
53 123 51 65 60 81 51 96 -11 17 5 29 68 52 24 9 84 7 99 -2z m461 -1 c0 -5
-5 -10 -11 -10 -5 0 -7 5 -4 10 3 6 8 10 11 10 2 0 4 -4 4 -10z m-1708 -61
l-10 -34 1 42 c1 23 6 38 10 34 5 -5 4 -24 -1 -42z m37 -19 c0 -28 -2 -31 -9
-15 -5 11 -9 36 -9 55 0 28 2 31 9 15 5 -11 9 -36 9 -55z m-358 20 c29 -16 23
-30 -15 -30 -25 0 -38 -6 -50 -25 -9 -14 -14 -31 -10 -37 5 -7 3 -8 -6 -3 -10
6 -12 4 -7 -9 4 -9 3 -15 -2 -12 -11 7 -61 -111 -61 -144 0 -14 -4 -32 -10
-40 -7 -11 -11 -8 -20 15 -16 41 9 128 62 223 37 63 45 72 70 72 16 0 38 -5
49 -10z m2619 -20 c0 -25 -4 -30 -35 -36 -19 -3 -35 -10 -35 -15 0 -11 -2 -11
38 0 l33 10 -26 -30 c-35 -43 -33 -63 5 -55 37 7 37 1 5 -47 -19 -27 -33 -37
-53 -38 l-27 -1 25 -8 c21 -7 19 -8 -15 -7 -23 0 -46 -2 -52 -6 -7 -4 -15 -2
-19 5 -6 9 -10 5 -15 -12 -6 -21 -7 -19 -9 15 -1 30 -6 14 -19 -60 -10 -55
-27 -129 -37 -165 -17 -58 -19 -62 -24 -35 -7 38 -41 45 -81 16 -27 -20 -65
-19 -53 1 4 6 0 14 -7 19 -11 7 -11 9 -1 9 7 0 11 4 8 8 -3 5 -1 22 4 38 8 28
8 27 9 -13 1 -65 8 -76 33 -51 15 15 30 19 58 16 l38 -3 7 58 c3 33 4 62 1 65
-3 3 -6 -6 -6 -21 0 -14 -5 -38 -12 -52 -10 -23 -13 -24 -28 -10 -14 12 -21
13 -43 2 -14 -6 -28 -19 -31 -27 -2 -8 -4 -5 -5 8 0 12 4 22 10 22 8 0 9 14 5
43 -4 24 -7 69 -7 100 -1 32 -5 60 -10 63 -5 3 -9 11 -9 17 0 7 4 6 11 -3 9
-12 10 -11 6 8 -3 12 -1 20 4 16 5 -3 9 -12 9 -20 0 -11 6 -13 19 -9 11 3 22
1 26 -5 4 -6 15 -8 25 -5 17 5 19 -1 23 -52 l4 -58 1 60 c1 83 4 89 12 25 l7
-55 -1 61 c-2 61 -19 100 -38 88 -6 -4 -4 -10 6 -16 9 -5 16 -13 16 -19 0 -6
-16 2 -36 17 -33 25 -37 26 -46 11 -5 -10 -13 -15 -19 -12 -5 4 -2 14 8 23 16
16 15 17 -5 20 -20 3 -21 5 -8 30 8 15 29 42 48 59 l34 33 74 -29 c41 -16 83
-32 93 -36 12 -5 16 -3 12 6 -4 12 67 68 88 69 4 0 7 -13 7 -30z m-940 -11 c0
-6 -4 -7 -10 -4 -5 3 -10 11 -10 16 0 6 5 7 10 4 6 -3 10 -11 10 -16z m190 14
c0 -5 -8 -17 -17 -28 -14 -18 -15 -18 -9 -2 3 10 6 23 6 28 0 5 5 9 10 9 6 0
10 -3 10 -7z m-1569 -60 c-4 -28 -6 -32 -9 -15 -3 22 3 52 11 52 1 0 1 -17 -2
-37z m-124 -5 c-3 -8 -6 -5 -6 6 -1 11 2 17 5 13 3 -3 4 -12 1 -19z m180 -10
c-3 -7 -5 -2 -5 12 0 14 2 19 5 13 2 -7 2 -19 0 -25z m1553 13 c-12 -24 -29
-35 -38 -26 -4 4 4 15 17 26 29 24 34 24 21 0z m750 -23 c0 -5 -4 -6 -10 -3
-6 3 -7 -1 -4 -9 5 -12 0 -16 -20 -16 -30 0 -32 7 -10 38 13 18 19 21 30 11 8
-6 14 -16 14 -21z m60 -23 c0 -5 -5 -3 -10 5 -5 8 -10 20 -10 25 0 6 5 3 10
-5 5 -8 10 -19 10 -25z m-2346 -25 c4 -25 3 -31 -4 -20 -5 8 -10 26 -10 39 0
32 6 24 14 -19z m1480 17 c-6 -16 -54 -53 -54 -41 0 8 53 64 57 60 2 -2 1 -10
-3 -19z m-1555 -49 c-3 -50 22 -128 40 -128 4 0 8 -14 8 -31 0 -23 -3 -27 -9
-15 -5 9 -6 21 -2 28 5 7 2 9 -9 5 -11 -4 -22 4 -36 27 -12 18 -21 37 -21 42
1 5 7 -2 15 -16 15 -27 19 -20 9 17 -4 13 -10 20 -15 17 -6 -3 -7 6 -3 23 3
15 8 40 11 56 8 44 14 31 12 -25z m-679 4 c0 -15 -2 -15 -10 -2 -13 20 -13 33
0 25 6 -3 10 -14 10 -23z m3068 3 c13 -28 14 -115 3 -155 l-7 -25 -12 22 c-16
29 -15 54 4 78 14 19 13 20 -13 25 -31 6 -43 41 -23 66 18 21 35 17 48 -11z
m46 -51 c1 -33 0 -68 -4 -78 -3 -10 -6 19 -7 63 -1 94 6 103 11 15z m-3142 22
c1 -10 -1 -21 -7 -22 -5 -2 -11 10 -12 28 -3 33 13 28 19 -6z m623 4 c10 0 11
-9 4 -37 -11 -48 -11 -62 0 -45 6 10 11 5 19 -18 10 -27 81 -124 105 -141 4
-3 5 -14 1 -24 -5 -13 -4 -16 5 -11 14 9 74 -42 65 -55 -3 -5 1 -7 8 -4 7 3
27 -4 43 -15 17 -11 25 -20 18 -20 -6 0 -15 5 -18 10 -3 6 -14 10 -23 10 -13
0 -11 -4 6 -16 13 -9 32 -14 43 -11 10 3 19 1 19 -4 0 -5 -2 -9 -4 -9 -2 0
-11 -2 -19 -5 -8 -4 -33 10 -56 30 -24 19 -40 35 -36 35 4 0 2 7 -5 15 -7 8
-17 12 -23 8 -5 -3 -7 -1 -3 5 3 6 2 13 -4 17 -5 3 -10 1 -10 -6 0 -21 -13 0
-15 23 -1 12 -7 24 -15 26 -8 3 -10 0 -5 -9 5 -8 -1 -5 -13 5 -12 11 -20 22
-17 25 4 3 10 -1 15 -9 8 -13 10 -12 10 3 0 9 -2 17 -4 17 -2 0 -11 3 -19 6
-21 8 -29 -34 -15 -82 15 -51 15 -51 17 -70 0 -8 6 -12 11 -9 6 3 11 -2 12
-12 0 -10 2 -24 2 -31 1 -7 7 -17 15 -21 7 -5 10 -14 7 -20 -4 -6 -2 -11 4
-11 7 0 10 -7 6 -15 -3 -8 -2 -15 3 -15 5 0 11 -14 13 -30 3 -17 2 -27 -2 -23
-8 10 -80 184 -84 204 -2 8 -5 21 -9 29 -9 26 -39 124 -42 140 -2 8 -8 35 -15
58 -6 24 -8 57 -5 73 4 18 3 29 -4 29 -6 0 -10 10 -10 23 1 16 2 18 6 5 2 -10
10 -18 18 -18z m1569 5 c-4 -8 -10 -15 -16 -15 -5 0 -2 -7 6 -16 25 -25 20
-45 -19 -74 -19 -14 -20 -14 -2 6 16 20 15 54 -3 54 -4 0 -19 -9 -34 -21 -43
-34 -29 -10 22 36 54 50 53 50 46 30z m71 -11 c0 -10 -4 -19 -10 -19 -19 0
-35 -16 -28 -28 4 -7 0 -7 -10 1 -20 17 -18 31 8 54 24 21 40 18 40 -8z m505
12 c0 -2 -7 -6 -15 -10 -8 -3 -15 -1 -15 4 0 6 7 10 15 10 8 0 15 -2 15 -4z
m-490 -51 c-7 -8 -17 -15 -23 -15 -6 0 -2 8 9 19 22 21 33 19 14 -4z m374 9
c3 -8 2 -12 -4 -9 -6 3 -10 10 -10 16 0 14 7 11 14 -7z m573 -51 c-33 -49 -40
-76 -31 -116 l7 -32 11 39 c10 36 11 33 12 -45 0 -56 -2 -73 -7 -51 -9 45 -24
56 -15 12 4 -19 9 -66 12 -105 l5 -70 -50 -75 c-28 -41 -46 -77 -41 -80 5 -3
1 -23 -11 -46 -19 -40 -17 -78 5 -71 6 2 16 22 22 44 13 45 43 107 49 101 3
-2 0 -21 -6 -42 -6 -20 -8 -43 -5 -49 2 -7 5 -2 5 11 1 12 6 22 12 22 6 0 9 7
6 14 -4 10 -1 13 9 9 18 -7 18 -13 -3 -30 -17 -14 -17 -14 1 -9 13 5 17 2 12
-9 -3 -8 -2 -35 3 -60 7 -36 6 -45 -5 -45 -8 0 -14 10 -15 23 -1 24 -21 -47
-21 -73 1 -35 -10 -70 -20 -64 -7 4 -8 2 -4 -5 4 -6 12 -9 17 -6 11 7 11 3 3
-19 -3 -9 -10 -13 -15 -10 -5 3 -9 -4 -9 -15 0 -11 4 -23 10 -26 6 -4 4 -21
-6 -44 -8 -22 -19 -61 -24 -88 l-9 -48 4 56 c3 31 12 69 20 85 11 21 11 30 2
36 -6 4 -15 2 -19 -5 -4 -7 -8 1 -8 20 0 17 -8 51 -19 75 -10 24 -21 75 -24
114 -3 38 -11 82 -16 98 -17 43 -13 99 13 183 30 97 43 160 50 240 7 81 30
136 73 173 44 39 53 31 20 -17z m-584 17 c3 -11 2 -22 -2 -24 -4 -3 -8 6 -9
20 -2 29 4 31 11 4z m387 7 c0 -5 -7 -7 -15 -3 -8 3 -15 2 -15 -2 0 -4 -11 -9
-26 -10 -14 -1 -34 -7 -45 -12 -13 -7 -19 -7 -19 0 0 5 5 10 11 10 5 0 7 5 3
12 -5 8 -2 9 9 5 9 -3 27 -2 39 2 28 11 58 10 58 -2z m-870 -7 c0 -5 -7 -10
-16 -10 -9 0 -12 -5 -8 -12 4 -6 3 -8 -3 -5 -6 4 -13 1 -16 -7 -3 -8 -14 -13
-24 -11 -10 1 -27 -5 -37 -14 -16 -13 -18 -14 -14 -1 2 8 14 20 26 26 12 6 19
14 14 19 -4 4 0 6 10 2 9 -3 24 1 35 8 22 17 33 19 33 5z m734 -5 c-12 -9 -14
-14 -6 -15 7 0 10 -5 7 -10 -4 -6 -10 -8 -15 -5 -5 3 -11 -14 -13 -37 l-4 -43
-1 47 c-2 46 15 78 41 78 6 0 2 -7 -9 -15z m-2880 -10 c-4 -8 -11 -12 -16 -9
-6 4 -5 10 3 15 19 12 19 11 13 -6z m2220 3 c-4 -7 -21 -31 -38 -53 -17 -21
-30 -41 -28 -43 5 -5 -60 -81 -74 -86 -23 -9 28 65 52 76 13 6 21 14 19 19 -3
4 1 13 8 21 7 7 23 28 36 46 21 31 40 45 25 20z m1079 -3 c-3 -9 -8 -14 -10
-11 -3 3 -2 9 2 15 9 16 15 13 8 -4z m-2486 -17 c-3 -8 -6 -5 -6 6 -1 11 2 17
5 13 3 -3 4 -12 1 -19z m1824 -21 c-10 -9 -11 -8 -5 6 3 10 9 15 12 12 3 -3 0
-11 -7 -18z m424 -39 c9 -35 21 -76 26 -92 11 -36 11 -87 0 -104 -5 -9 -11 5
-15 40 -6 45 -35 158 -53 204 -3 8 1 14 9 14 10 0 21 -23 33 -62z m-935 45
c-1 -12 -90 -78 -101 -75 -6 1 -8 -2 -5 -7 3 -5 -7 -17 -22 -26 -27 -18 -27
-18 -9 2 17 19 15 53 -3 53 -15 0 -21 -18 -8 -22 9 -3 8 -10 -6 -23 -15 -15
-22 -16 -37 -7 -11 7 -19 9 -18 5 1 -5 0 -11 -1 -15 -1 -5 -3 -11 -4 -15 -3
-18 -36 -56 -43 -49 -4 4 -2 11 5 15 7 4 14 17 17 29 5 30 12 40 37 53 16 8
19 8 13 -1 -5 -8 -3 -11 6 -8 8 3 13 11 12 19 -1 8 11 24 27 37 27 21 29 22
27 3 0 -11 -5 -17 -11 -14 -5 3 -6 1 -2 -5 5 -8 13 -9 24 -3 9 4 23 6 31 3 10
-3 11 1 6 18 -6 19 -4 21 14 15 14 -4 23 -1 27 9 6 16 24 22 24 9z m1153 -18
c-3 -13 -12 -30 -21 -37 -9 -7 -13 -8 -9 -2 3 6 11 23 16 38 13 33 20 34 14 1z
m-3413 -17 c-1 -18 1 -53 4 -78 5 -41 5 -42 -4 -10 -12 47 -13 60 -12 93 3 38
13 34 12 -5z m970 28 c0 -3 -4 -8 -10 -11 -5 -3 -10 -1 -10 4 0 6 5 11 10 11
6 0 10 -2 10 -4z m2065 -35 c-16 -32 -43 -56 -52 -48 -3 4 2 9 11 13 9 3 16
12 16 20 0 8 5 14 10 14 6 0 10 4 10 10 0 5 -7 7 -15 4 -9 -4 -15 0 -15 9 0
10 8 13 25 10 23 -5 24 -7 10 -32z m124 -3 c22 -86 31 -134 31 -183 0 -88 -15
-76 -17 14 -1 75 -13 133 -38 194 -4 9 -3 17 3 17 5 0 14 -19 21 -42z m93 7
c-2 -14 -6 -25 -8 -25 -2 0 -4 11 -4 25 0 14 4 25 9 25 4 0 6 -11 3 -25z
m-2269 1 c3 -8 0 -17 -7 -19 -10 -4 -12 1 -9 14 6 23 9 24 16 5z m953 1 c-10
-7 -48 -31 -84 -54 -36 -24 -74 -45 -84 -49 -10 -3 -18 -9 -18 -14 0 -5 -13
-11 -30 -15 -16 -4 -32 -11 -35 -16 -4 -5 -18 -9 -33 -9 -24 1 -23 2 11 15 21
7 42 17 45 21 4 4 0 5 -9 1 -9 -3 -38 -8 -65 -11 l-49 -5 50 13 c28 7 67 20
88 29 21 9 35 12 32 7 -3 -6 -1 -10 5 -10 6 0 13 6 16 14 3 9 13 12 22 9 9 -4
14 -3 10 2 -4 4 25 25 65 46 71 37 100 49 63 26z m-1007 -44 c-2 -1 5 -9 16
-17 12 -9 15 -15 7 -16 -7 0 -25 12 -40 27 -15 15 -18 20 -8 12 18 -13 18 -12
12 11 -6 23 -6 24 5 5 7 -11 11 -21 8 -22z m71 -3 c0 -5 -2 -10 -4 -10 -3 0
-8 5 -11 10 -3 6 -1 10 4 10 6 0 11 -4 11 -10z m-1016 -36 c2 -16 -2 -35 -10
-42 -12 -11 -16 -9 -26 13 -9 21 -8 28 8 44 23 22 24 22 28 -15z m2701 -16
c-8 -47 -23 -83 -32 -74 -3 3 -14 1 -25 -5 -13 -7 -23 -7 -32 0 -7 6 -17 7
-21 3 -5 -4 -5 -1 0 6 5 9 11 10 17 4 11 -11 48 -4 48 10 0 5 4 7 9 3 10 -5
14 5 25 60 6 28 5 29 -9 11 -8 -11 -15 -15 -15 -10 0 12 21 34 33 34 5 0 6
-19 2 -42z m-1662 -13 c-2 -8 -12 -11 -21 -7 -15 5 -15 4 -3 -12 11 -13 16
-14 23 -4 6 8 7 5 3 -11 -5 -15 -3 -21 3 -17 14 8 23 -7 13 -22 -10 -16 -41
-5 -35 12 3 7 -7 25 -21 40 -14 15 -25 32 -24 39 0 9 2 9 6 0 2 -7 9 -13 14
-13 6 0 7 4 4 10 -3 6 1 7 10 4 11 -5 14 -2 9 12 -5 18 -5 18 9 1 9 -11 13
-25 10 -32z m977 41 c0 -2 -8 -10 -17 -17 -16 -13 -17 -12 -4 4 13 16 21 21
21 13z m100 -26 c0 -11 -61 -62 -67 -56 -7 6 37 45 51 46 6 0 1 7 -10 15 -18
14 -18 14 4 8 12 -3 22 -9 22 -13z m-1040 2 c0 -5 24 -35 53 -67 28 -32 52
-62 52 -66 0 -4 6 -14 14 -21 12 -11 13 -10 7 6 -7 19 -6 19 13 2 11 -10 18
-23 14 -29 -3 -5 -1 -7 4 -4 6 4 32 -10 58 -30 47 -38 47 -51 -2 -38 -21 5
-24 8 -12 16 7 5 10 9 4 10 -5 1 -15 2 -21 3 -17 2 -114 93 -114 106 0 6 -4 8
-10 5 -6 -3 -7 1 -4 10 5 11 2 14 -10 9 -9 -4 -16 -3 -15 2 4 21 -2 30 -23 31
-21 2 -38 19 -38 38 1 6 7 2 14 -7 20 -27 30 -21 12 7 -9 14 -12 25 -6 25 5 0
10 -4 10 -8z m942 -23 c-9 -11 -18 -15 -20 -9 -5 14 18 41 29 35 4 -3 1 -15
-9 -26z m-44 -3 c-22 -16 -24 -30 -4 -23 11 4 13 1 9 -10 -5 -13 -2 -15 11
-10 10 4 15 3 11 -3 -3 -6 -13 -10 -21 -10 -8 0 -14 -5 -14 -11 0 -7 -8 -18
-17 -25 -16 -12 -16 -13 -2 -14 20 0 42 24 31 35 -4 4 0 5 8 3 8 -3 24 2 35
10 11 9 7 2 -10 -14 -34 -33 -85 -68 -85 -58 0 4 -8 0 -17 -8 -32 -27 -49 -30
-20 -4 16 15 33 23 39 20 7 -5 9 -1 5 8 -3 9 1 24 8 35 8 10 15 26 15 36 0 14
-12 10 -62 -24 -35 -23 -58 -36 -51 -29 25 27 129 109 138 109 6 0 2 -6 -7
-13z m478 -62 c-4 -19 -11 -34 -17 -34 -6 0 -7 -4 -4 -10 3 -5 1 -10 -5 -10
-6 0 -8 -4 -5 -10 3 -5 1 -10 -4 -10 -6 0 -11 5 -11 11 0 5 -5 7 -12 3 -7 -4
-8 -3 -4 5 4 6 11 9 16 6 11 -7 20 19 15 45 -2 12 1 32 7 46 10 22 13 23 21 9
5 -9 6 -32 3 -51z m954 27 c5 -19 5 -29 -1 -26 -11 7 -11 3 -3 -19 3 -9 10
-13 15 -10 10 5 -20 -77 -30 -86 -3 -3 -6 -29 -7 -59 -1 -29 -6 -56 -13 -60
-6 -4 -9 -15 -5 -24 10 -28 -4 -19 -19 12 -8 16 -11 35 -7 42 5 7 6 19 2 27
-3 10 -1 13 6 8 6 -3 9 -20 7 -36 -2 -17 0 -28 4 -25 5 2 7 21 5 42 -1 20 4
60 11 87 8 28 14 44 14 36 1 -13 3 -13 10 0 6 8 7 18 5 22 -8 12 -16 113 -9
106 3 -3 10 -19 15 -37z m-3350 9 c9 -17 8 -20 -9 -20 -11 0 -23 5 -27 12 -5
8 -2 9 11 4 15 -5 16 -4 5 9 -8 10 -9 15 -2 15 6 0 16 -9 22 -20z m2339 3 c-8
-10 -17 -20 -20 -23 -3 -3 -13 -19 -22 -36 -9 -17 -25 -34 -36 -37 -24 -6 -60
16 -43 27 7 4 12 2 12 -3 0 -17 27 -13 34 5 3 8 10 12 16 9 5 -3 10 -1 10 6 0
7 12 26 27 41 30 31 43 38 22 11z m353 -5 c-7 -7 -12 -8 -12 -2 0 14 12 26 19
19 2 -3 -1 -11 -7 -17z m-1179 5 c-13 -2 -33 -2 -45 0 -13 2 -3 4 22 4 25 0
35 -2 23 -4z m54 -9 c-3 -3 -12 -4 -19 -1 -8 3 -5 6 6 6 11 1 17 -2 13 -5z
m673 -8 c0 -2 -7 -7 -16 -10 -8 -3 -12 -2 -9 4 6 10 25 14 25 6z m294 -76 c-2
-62 -4 -70 -12 -47 -9 20 -3 97 7 97 3 0 5 -22 5 -50z m-27 8 c-3 -8 -6 -5 -6
6 -1 11 2 17 5 13 3 -3 4 -12 1 -19z m313 7 c10 -13 9 -23 -5 -56 -17 -36 -20
-38 -34 -25 -8 9 -11 19 -7 23 5 5 11 2 13 -5 3 -9 10 -4 19 13 12 23 12 29
-1 42 -13 13 -16 12 -24 -9 -10 -23 -10 -23 -10 5 -1 20 4 27 18 27 10 0 24
-7 31 -15z m-2751 -8 c8 -10 7 -14 -4 -14 -8 0 -11 5 -8 10 3 6 1 7 -6 3 -19
-12 -3 -25 24 -20 14 2 25 0 25 -6 0 -5 -18 -10 -40 -10 -22 0 -40 -4 -40 -9
0 -15 18 -23 25 -11 3 5 13 10 22 10 13 0 13 -3 2 -16 -11 -14 -9 -15 17 -12
23 2 28 7 26 23 -2 15 2 13 17 -10 25 -37 26 -45 4 -45 -12 0 -14 3 -6 8 7 4
9 13 4 21 -7 10 -9 10 -14 -3 -5 -12 -13 -13 -39 -6 -18 6 -43 15 -54 21 l-22
11 22 34 c24 37 29 40 45 21z m2345 -14 c-3 -39 -3 -40 -14 -23 -8 12 -10 12
-10 1 0 -8 -3 -12 -6 -9 -4 5 23 58 30 58 1 0 1 -12 0 -27z m146 -4 c0 -5 -4
-9 -10 -9 -5 0 -10 7 -10 16 0 8 5 12 10 9 6 -3 10 -10 10 -16z m135 -75 c4
-32 8 -69 10 -82 2 -12 0 -20 -6 -17 -5 4 -9 0 -9 -7 0 -10 -3 -9 -10 2 -5 9
-5 19 1 27 6 7 7 18 3 25 -5 7 -7 23 -6 35 2 11 -2 24 -8 28 -6 4 -8 16 -4 27
4 14 2 18 -5 14 -14 -9 -14 0 1 24 12 19 13 19 19 1 4 -10 10 -44 14 -77z
m-145 6 c-17 -32 -24 -16 -9 20 9 19 15 25 17 16 2 -8 -2 -25 -8 -36z m-2218
15 c55 -26 42 -35 -16 -11 l-34 14 5 -83 c4 -55 0 -106 -10 -156 -9 -41 -21
-110 -28 -154 -14 -95 -28 -129 -29 -70 0 22 -3 51 -6 65 -4 16 -3 21 3 13 6
-8 9 5 9 38 0 28 5 53 11 57 15 10 37 204 29 263 -4 28 -3 49 3 49 5 0 33 -11
63 -25z m2108 -30 c0 -13 4 -35 10 -49 11 -29 -4 -84 -28 -103 -14 -11 -13
-13 5 -13 12 0 24 6 26 13 4 9 8 9 14 0 5 -6 17 -11 28 -10 11 1 21 -5 23 -15
2 -13 -3 -18 -18 -18 -11 0 -37 -7 -57 -15 -20 -8 -51 -17 -70 -19 -29 -4 -33
-2 -28 13 9 28 -31 33 -79 12 l-41 -19 33 -7 c32 -7 41 -19 23 -29 -13 -8 -42
4 -35 15 3 5 -1 9 -9 9 -8 0 -13 -10 -13 -22 1 -14 -6 -24 -16 -26 -11 -2 -18
3 -18 12 0 13 -12 16 -62 16 -69 0 -74 8 -7 14 24 2 53 7 63 12 15 6 18 4 12
-7 -5 -10 -3 -9 6 1 7 9 43 33 80 53 50 28 74 36 95 32 26 -6 27 -5 10 8 -17
14 -16 16 14 22 27 6 30 9 18 19 -10 7 -13 19 -8 36 l7 25 1 -27 c1 -38 21
-36 21 2 0 20 -5 30 -15 30 -8 0 -15 9 -15 20 0 11 4 20 10 20 5 0 6 7 3 17
-4 11 -3 14 5 9 7 -4 12 -18 12 -31z m-310 13 c0 -4 -4 -8 -10 -8 -5 0 -10
-10 -10 -22 0 -27 -5 -21 -14 14 -5 23 -3 27 14 25 11 -1 20 -5 20 -9z m177
-8 c-3 -11 -1 -20 4 -20 11 0 12 -41 1 -56 -11 -16 -51 -12 -44 5 3 9 1 12 -6
7 -7 -4 -12 -2 -12 3 0 16 16 13 30 -4 11 -13 15 -13 21 -3 12 18 11 26 -3 25
-34 -1 -58 4 -58 12 0 5 9 7 20 4 14 -4 23 2 31 21 14 31 24 34 16 6z m-149
-85 c-1 -31 -16 35 -16 70 0 25 2 24 9 -10 4 -22 8 -49 7 -60z m-151 69 c-3
-3 -2 -17 3 -30 9 -23 8 -24 -20 -19 -20 4 -30 1 -31 -7 -1 -7 -4 -2 -8 12 -6
22 -3 27 23 37 37 14 41 15 33 7z m132 -59 c1 -17 -1 -18 -10 -5 -8 12 -10 12
-7 -5 2 -11 13 -24 26 -30 12 -5 22 -13 22 -17 0 -11 -5 -10 -36 4 -23 11 -25
16 -20 48 3 19 6 44 7 55 1 17 2 16 9 -5 4 -14 8 -34 9 -45z m1261 -84 c0 -19
-3 -31 -7 -28 -6 7 -8 16 -17 122 l-5 60 14 -60 c8 -33 14 -75 15 -94z m-812
69 c-2 -19 -10 -26 -30 -28 -23 -3 -28 -8 -27 -30 0 -23 2 -24 8 -8 7 18 8 18
14 -5 10 -37 8 -122 -3 -139 -8 -11 -9 7 -6 60 4 61 3 67 -4 30 -16 -82 -22
-100 -36 -100 -8 0 -14 5 -14 10 0 6 3 10 8 10 18 0 34 63 28 112 -7 53 3 78
33 78 18 0 26 36 10 45 -5 4 -6 -2 -2 -11 5 -13 3 -15 -7 -9 -9 5 -11 4 -6 -3
4 -7 2 -12 -3 -12 -15 0 -14 16 2 40 11 19 13 19 25 3 7 -10 12 -29 10 -43z
m-2038 28 l45 -22 -44 -4 c-73 -6 -100 -49 -119 -191 -8 -57 8 -246 33 -378 3
-19 2 -33 -4 -33 -28 0 -70 76 -72 127 0 15 -3 22 -6 16 -13 -34 -19 -2 -21
110 -1 67 -2 124 -2 126 -1 17 -50 -68 -60 -105 -18 -65 -27 -62 -19 7 5 45
17 75 47 122 23 35 43 81 47 107 4 25 18 57 31 72 12 16 25 37 29 48 9 27 57
26 115 -2z m1315 -8 c-3 -5 -11 -10 -16 -10 -6 0 -7 5 -4 10 3 6 11 10 16 10
6 0 7 -4 4 -10z m885 -4 c0 -19 -62 -146 -71 -146 -5 0 -29 45 -29 55 0 2 6 2
14 -1 8 -3 12 -12 9 -20 -3 -8 0 -14 6 -14 6 0 11 6 11 14 0 8 6 17 13 20 10
5 10 7 0 12 -18 8 -16 24 1 24 14 0 32 36 28 53 -1 4 3 7 8 7 6 0 10 -2 10 -4z
m496 -32 c-10 -14 -20 -23 -23 -21 -6 6 30 57 36 51 2 -2 -4 -15 -13 -30z
m-1246 16 c0 -5 -7 -10 -15 -10 -8 0 -15 5 -15 10 0 6 7 10 15 10 8 0 15 -4
15 -10z m637 -27 c18 -38 8 -41 -12 -4 -8 17 -12 31 -8 31 5 0 14 -12 20 -27z
m33 13 c0 -8 3 -23 6 -33 6 -16 5 -16 -9 2 -19 23 -22 45 -7 45 6 0 10 -6 10
-14z m-640 -6 c0 -5 -2 -10 -4 -10 -3 0 -8 5 -11 10 -3 6 -1 10 4 10 6 0 11
-4 11 -10z m480 -19 c0 -14 -18 -23 -30 -16 -6 4 -8 11 -5 16 8 12 35 12 35 0z
m-1324 -10 c13 -1 15 -31 2 -31 -5 0 -11 7 -14 15 -4 10 -13 13 -25 10 -11 -4
-19 -2 -19 3 0 8 10 9 56 3z m1813 -7 c22 -8 43 -23 47 -32 4 -9 9 -82 11
-162 l5 -145 -31 48 c-17 26 -36 45 -41 42 -5 -3 -8 0 -5 7 6 16 -64 68 -125
93 -76 32 -81 39 -63 93 9 26 20 53 26 60 14 17 128 15 176 -4z m-419 2 c0 -3
-4 -8 -10 -11 -5 -3 -10 -1 -10 4 0 6 5 11 10 11 6 0 10 -2 10 -4z m-1342 -28
c-2 -12 -10 -23 -18 -25 -12 -4 -12 -3 -2 5 8 5 14 13 14 17 0 4 -6 12 -14 16
-10 7 -9 9 5 9 13 0 17 -6 15 -22z m1884 10 c8 -21 -2 -38 -23 -38 -22 0 -23
4 -7 30 15 23 24 25 30 8z m-1665 -14 c-3 -3 -12 -4 -19 -1 -8 3 -5 6 6 6 11
1 17 -2 13 -5z m-678 -33 c0 -10 -2 -11 -6 -3 -2 6 -9 10 -14 6 -5 -3 -9 2 -9
10 0 10 6 13 15 10 8 -4 15 -14 14 -23z m591 14 c0 -8 -7 -15 -16 -15 -14 0
-14 3 -4 15 7 8 14 15 16 15 2 0 4 -7 4 -15z m25 6 c3 -5 1 -12 -5 -16 -5 -3
-10 1 -10 9 0 18 6 21 15 7z m303 -8 c-10 -2 -18 -9 -18 -14 0 -5 -8 -9 -17
-8 -11 0 -13 3 -5 6 6 2 10 9 6 14 -3 5 7 8 23 8 17 -1 21 -3 11 -6z m72 -3
c0 -5 -6 -10 -14 -10 -8 0 -18 5 -21 10 -3 6 3 10 14 10 12 0 21 -4 21 -10z
m-520 -9 c0 -13 -28 -22 -35 -11 -3 4 1 11 7 13 20 8 28 8 28 -2z m670 -6 c10
-12 10 -15 -3 -15 -8 0 -17 -9 -20 -20 -7 -26 19 -27 41 -1 16 18 59 27 117
22 16 -1 17 -3 6 -13 -8 -8 -15 -9 -17 -3 -2 6 -25 8 -52 6 l-47 -5 35 -7 35
-6 -37 -2 c-38 -1 -58 -15 -36 -25 7 -3 0 -3 -17 1 -41 8 -47 13 -41 29 3 8 1
14 -4 14 -5 0 -10 -7 -12 -15 -2 -11 -7 -12 -18 -4 -11 8 -12 12 -2 16 6 2 12
11 12 19 0 12 4 12 20 4 12 -6 20 -7 20 -1 0 5 -6 12 -12 14 -8 4 -7 6 3 6 9
1 22 -6 29 -14z m-496 -9 c-5 -13 -74 -18 -74 -4 0 6 20 11 67 17 7 0 10 -5 7
-13z m136 6 c0 -4 -11 -9 -26 -10 -14 -1 -23 2 -19 8 7 12 45 14 45 2z m755
-2 c-3 -5 -13 -10 -21 -10 -8 0 -14 5 -14 10 0 6 9 10 21 10 11 0 17 -4 14
-10z m834 -77 c1 -23 11 -66 22 -95 16 -39 23 -82 27 -165 5 -126 -11 -159
-22 -45 -13 129 -35 159 -75 105 l-20 -28 -1 71 c0 49 6 85 19 115 11 24 23
62 27 84 6 32 9 36 15 20 4 -11 8 -39 8 -62z m-655 28 c-10 -17 -27 -34 -38
-37 -27 -9 -121 -74 -107 -74 6 0 11 -7 11 -15 0 -8 5 -15 11 -15 6 0 9 7 6
15 -8 19 13 31 24 14 6 -11 11 -11 21 -1 9 9 9 12 -5 12 -9 0 -17 5 -17 10 0
6 5 10 11 10 7 0 17 6 23 14 14 17 62 33 52 17 -5 -7 -1 -9 8 -5 17 7 18 4 18
-96 l0 -55 8 50 c4 28 6 59 3 71 -3 14 1 21 12 21 12 0 15 -6 10 -21 -3 -12
-8 -43 -11 -71 -7 -65 -23 -117 -35 -110 -5 4 -10 -2 -10 -12 -2 -32 -4 -38
-17 -60 -13 -23 -42 -32 -42 -13 0 18 -18 11 -25 -9 -7 -23 -41 -31 -73 -17
-18 8 -28 5 -50 -15 -33 -30 -101 -82 -122 -94 -20 -11 -9 -1 70 66 36 29 68
58 71 62 4 5 19 1 35 -9 l28 -19 -7 25 c-4 14 -7 32 -7 41 0 12 -7 15 -25 11
-27 -5 -35 12 -10 22 8 3 15 15 15 26 0 11 -7 20 -15 20 -8 0 -23 8 -34 19
-12 12 -30 17 -55 16 -44 -3 -61 -15 -22 -15 21 0 27 -4 22 -16 -3 -8 -2 -13
3 -10 16 11 44 -21 45 -52 1 -21 5 -31 13 -27 7 2 23 0 35 -5 21 -8 20 -9 -9
-9 -18 -1 -57 -10 -87 -22 -41 -15 -60 -18 -73 -10 -15 9 -11 10 19 11 50 0
57 16 10 25 -34 7 -35 8 -14 16 14 5 20 13 16 20 -4 8 -3 9 4 5 6 -3 16 3 22
14 9 17 8 22 -7 27 -10 4 -22 13 -26 21 -7 11 -12 10 -24 -7 -8 -12 -23 -21
-34 -21 -10 0 -19 -5 -19 -11 0 -7 12 -9 35 -5 22 4 35 3 35 -4 0 -5 -9 -10
-21 -10 -11 0 -18 -4 -15 -9 3 -4 -29 -19 -72 -31 -112 -34 -138 -38 -153 -29
-9 6 0 9 26 9 30 0 36 3 25 10 -11 7 -7 9 15 6 17 -2 24 -1 17 1 -8 3 17 23
55 45 37 22 99 60 136 86 63 43 70 45 81 29 15 -20 26 -22 26 -4 0 6 14 18 30
25 39 18 38 30 -2 26 -31 -4 -30 -2 27 37 33 22 77 49 98 60 29 15 37 24 32
39 -4 13 0 20 12 22 26 6 27 3 7 -31z m-154 13 c0 -2 -7 -4 -15 -4 -8 0 -15 4
-15 10 0 5 7 7 15 4 8 -4 15 -8 15 -10z m19 -12 c-13 -11 -37 -22 -52 -26 -15
-4 -25 -11 -22 -17 4 -6 12 -6 18 -1 7 5 31 14 55 21 23 6 40 16 37 20 -3 5 2
11 10 15 8 3 15 1 15 -5 0 -6 6 -7 13 -3 8 5 9 4 2 -3 -20 -21 -141 -66 -173
-64 -18 0 -44 -6 -57 -15 -14 -9 -25 -12 -25 -6 0 6 9 13 19 17 11 3 22 12 25
20 3 8 14 15 24 15 11 0 25 7 32 15 7 8 25 15 41 15 15 0 31 5 34 10 3 6 11
10 17 10 6 0 0 -8 -13 -18z m-335 -7 c-4 -8 -15 -15 -25 -15 -27 0 -24 18 4
23 12 2 23 5 24 6 1 0 0 -6 -3 -14z m83 -35 c16 -15 35 -30 43 -34 8 -3 3 -4
-11 -1 -18 3 -26 0 -26 -9 0 -17 65 -15 110 3 53 21 42 10 -25 -24 -90 -45
-113 -52 -105 -32 4 11 -1 18 -14 22 -11 4 -30 21 -41 38 -11 18 -18 24 -14
14 6 -19 6 -19 -64 21 -24 13 -24 14 13 8 29 -4 42 -1 54 13 19 23 45 17 80
-19z m-847 10 c9 -6 15 -28 16 -62 2 -40 6 -54 18 -56 9 -2 16 -8 16 -13 0 -5
5 -9 11 -9 5 0 7 5 4 10 -3 6 1 10 11 10 13 0 10 5 -10 21 -35 27 -33 34 12
45 27 7 36 14 34 27 -4 21 14 23 22 1 11 -28 7 -32 -34 -39 -22 -4 -40 -11
-40 -17 0 -7 14 -8 35 -5 34 6 47 -5 24 -18 -6 -4 -8 -13 -5 -21 4 -10 -2 -14
-19 -14 -13 0 -27 -5 -30 -10 -4 -6 -23 6 -45 27 -27 27 -41 50 -46 78 -6 37
-5 39 9 20 8 -11 18 -17 21 -14 3 3 -3 15 -14 27 -21 23 -16 29 10 12z m433 3
c-7 -2 -21 -2 -30 0 -10 3 -4 5 12 5 17 0 24 -2 18 -5z m153 -14 c16 -6 40
-13 53 -15 13 -2 27 -8 31 -15 5 -6 13 -8 21 -4 9 6 11 4 6 -7 -4 -12 0 -15
16 -11 21 4 21 4 3 -8 -15 -9 -24 -9 -37 0 -26 16 -29 14 -29 -14 0 -24 0 -24
41 -10 54 19 74 19 29 -1 -27 -12 -32 -17 -20 -24 12 -8 10 -10 -8 -10 -33 0
-92 27 -92 42 0 9 3 9 10 -2 8 -12 10 -10 10 8 0 15 -4 21 -12 16 -7 -4 -8 -3
-4 5 12 20 -15 43 -42 36 -15 -4 -21 -2 -17 4 3 6 -4 13 -17 15 -55 12 -60 15
-17 11 25 -2 59 -9 75 -16z m-947 -38 c0 -14 -1 -14 -6 -1 -3 8 -10 24 -15 35
-9 20 -9 20 6 1 9 -11 16 -27 15 -35z m701 41 c0 -14 -65 -32 -116 -31 -36 0
-44 3 -29 9 17 7 16 9 -10 10 -18 2 -23 4 -12 7 9 2 33 -1 52 -7 27 -9 39 -8
62 4 31 17 53 20 53 8z m58 -13 c-18 -12 -25 -11 -31 4 -4 10 2 13 20 9 18 -3
21 -7 11 -13z m132 1 c0 -12 -17 -12 -45 0 -17 7 -15 9 13 9 17 1 32 -3 32 -9z
m1520 -20 c-8 -5 -17 -7 -19 -4 -3 3 1 9 9 14 8 5 17 7 19 4 3 -3 -1 -9 -9
-14z m-629 -39 c-8 -5 -10 -14 -6 -21 6 -9 4 -11 -5 -5 -9 5 -10 2 -6 -11 3
-11 1 -26 -5 -34 -9 -12 -10 -11 -5 5 6 20 6 20 -9 1 -17 -22 -20 -40 -5 -31
6 3 10 2 10 -4 0 -16 -18 -22 -23 -9 -3 7 -6 -6 -6 -29 -1 -44 -61 -170 -74
-156 -4 3 -7 0 -7 -8 0 -11 -2 -11 -9 -1 -6 10 -10 10 -20 -2 -11 -13 -9 -15
16 -13 20 1 34 12 50 37 12 19 23 31 23 26 0 -12 -77 -144 -99 -170 -21 -24
-121 -99 -127 -94 -2 2 13 30 32 62 35 55 36 58 18 74 -17 16 -17 16 -3 -3 13
-18 13 -19 -3 -7 -9 8 -22 10 -29 6 -8 -5 -7 -10 5 -16 16 -9 16 -11 0 -29
-21 -23 -34 -24 -34 -4 0 8 -5 15 -10 15 -7 0 -7 -8 1 -22 10 -19 8 -25 -19
-47 -16 -14 -46 -37 -66 -51 -20 -14 -46 -33 -57 -42 -21 -17 -49 -12 -64 12
-3 5 -13 6 -22 3 -14 -6 -14 -2 3 20 10 14 22 27 27 27 4 0 7 7 7 15 0 8 17
32 38 55 22 22 37 42 34 45 -3 3 0 5 7 5 8 0 10 -7 6 -20 -4 -11 -2 -20 4 -20
6 0 11 4 11 10 0 5 12 21 26 35 26 26 27 47 2 28 -7 -5 -22 -13 -33 -17 -16
-6 -18 -5 -7 6 7 7 16 13 20 14 25 3 42 18 37 34 -4 11 1 20 12 24 14 6 15 5
6 -5 -10 -10 -9 -15 5 -25 13 -10 19 -9 29 5 15 19 17 35 3 26 -5 -3 -10 -1
-10 4 0 6 11 11 24 11 14 0 28 5 31 10 3 6 10 10 16 10 5 0 -10 -19 -33 -42
-26 -26 -51 -41 -63 -40 -13 2 -16 0 -8 -5 13 -9 -37 -67 -125 -143 -54 -47
-62 -60 -36 -60 8 0 12 -4 9 -10 -3 -6 4 -10 17 -10 17 0 19 3 9 9 -17 11 -7
41 14 41 9 0 13 5 10 10 -8 13 1 13 27 -1 15 -8 23 -8 32 1 8 8 7 10 -6 5 -16
-6 -16 -4 -8 21 11 30 140 134 166 134 9 0 12 5 8 12 -5 7 -3 8 5 4 7 -5 10
-15 6 -23 -4 -12 -2 -13 8 -5 7 6 18 7 26 3 11 -7 10 -11 -4 -18 -15 -9 -16
-11 -1 -16 9 -4 15 -3 13 2 -1 4 11 19 27 33 22 19 26 27 16 33 -9 5 -11 4 -6
-4 6 -8 0 -10 -18 -5 -17 4 -26 2 -26 -6 0 -10 -4 -10 -15 0 -19 16 -1 32 23
22 9 -3 13 -1 9 5 -4 6 2 18 13 28 11 10 20 15 20 11 0 -9 41 41 58 72 7 13
10 27 7 32 -14 22 77 211 93 195 4 -3 0 -10 -7 -14z m624 -8 c-5 -10 -9 -23
-10 -29 -2 -6 -10 -24 -20 -40 -9 -16 -13 -20 -9 -9 4 11 9 34 12 50 5 31 21
59 30 51 2 -3 1 -13 -3 -23z m-1282 -20 c-7 -2 -19 -2 -25 0 -7 3 -2 5 12 5
14 0 19 -2 13 -5z m262 -3 c3 -5 -1 -10 -10 -10 -9 0 -13 5 -10 10 3 6 8 10
10 10 2 0 7 -4 10 -10z m-235 -11 c-12 -8 -10 -10 10 -5 24 5 24 4 6 -9 -31
-23 -39 -16 -27 23 1 1 7 2 14 2 8 0 7 -4 -3 -11z m-1060 -65 c0 -6 7 -17 15
-24 9 -7 13 -15 11 -18 -3 -2 9 -17 27 -33 18 -16 33 -25 35 -19 2 5 8 10 13
10 6 0 7 -5 4 -10 -4 -6 7 -38 24 -70 19 -36 26 -59 19 -58 -16 4 -37 37 -38
60 0 10 -26 44 -58 76 -32 31 -62 70 -66 86 -5 20 -11 26 -22 22 -25 -9 -35 3
-23 26 11 20 12 20 35 -8 13 -16 23 -34 24 -40z m66 19 c-4 -4 -11 -1 -16 7
-16 25 -11 35 7 17 9 -9 13 -20 9 -24z m-181 -25 c21 -53 14 -59 -9 -8 -10 22
-22 40 -27 40 -5 0 -9 4 -9 10 0 23 30 -5 45 -42z m561 12 c23 0 26 -2 14 -11
-12 -9 -11 -10 8 -6 13 3 20 1 16 -5 -7 -11 35 -1 49 12 5 4 18 5 30 2 17 -4
14 -7 -18 -17 l-40 -11 52 0 c29 0 48 3 42 7 -7 4 -5 9 6 13 24 9 43 8 28 -2
-7 -4 9 -7 35 -6 73 3 74 3 67 15 -5 7 4 9 26 4 19 -3 54 -8 78 -11 75 -8 61
-16 -16 -10 -106 8 -120 -3 -37 -30 44 -15 60 -23 44 -24 l-25 -1 25 -10 c17
-7 26 -7 28 0 2 6 11 11 20 11 14 -1 12 -5 -7 -20 -23 -20 -23 -20 -2 -20 12
0 19 5 16 10 -3 6 -2 10 4 10 24 0 18 -19 -9 -30 -29 -12 -41 -30 -20 -30 6 0
10 -4 10 -9 0 -14 -37 -24 -52 -14 -7 4 -20 6 -30 5 -9 -2 -19 1 -22 7 -4 5 3
7 16 3 17 -4 20 -2 15 11 -8 22 2 47 19 47 19 0 18 -10 -3 -27 -17 -13 -17
-14 2 -11 25 4 32 36 10 44 -9 4 -24 -1 -35 -11 -22 -20 -48 -11 -30 10 8 10
7 14 -7 18 -10 3 -2 6 17 7 l35 2 -28 8 c-30 9 -60 3 -52 -10 8 -13 -21 -19
-56 -10 -87 20 -200 55 -259 78 -57 23 -62 27 -40 33 16 4 29 1 36 -7 6 -8 24
-14 40 -14z m583 26 c-16 -16 -114 -45 -135 -40 -38 10 -15 24 46 30 29 2 56
6 58 9 3 3 12 5 20 5 9 0 13 -2 11 -4z m-946 -33 c-16 -13 -16 -13 6 -3 15 8
27 8 33 2 11 -11 -7 -26 -32 -27 -8 0 -14 -8 -14 -17 2 -23 -12 -14 -19 11 -5
21 22 63 36 54 4 -3 0 -11 -10 -20z m-117 -10 c0 -10 3 -31 7 -48 l6 -30 -14
30 c-16 33 -19 65 -7 65 4 0 8 -8 8 -17z m-98 -24 c-3 -8 -7 -3 -11 10 -4 17
-3 21 5 13 5 -5 8 -16 6 -23z m323 3 c-7 -2 -18 1 -23 6 -8 8 -4 9 13 5 13 -4
18 -8 10 -11z m69 -24 c0 -10 -16 -9 -50 2 -22 7 -20 8 13 7 20 -1 37 -5 37
-9z m-370 -23 c4 3 13 -2 20 -10 10 -12 10 -15 -1 -15 -8 0 -4 -8 9 -20 12
-12 22 -25 22 -31 0 -6 -18 11 -40 36 -24 27 -37 51 -33 58 5 8 9 6 11 -6 2
-9 7 -15 12 -12z m277 -23 c2 -33 -1 -43 -7 -32 -11 18 -13 80 -2 80 4 0 8
-21 9 -48z m153 37 c0 -6 8 -8 19 -4 11 3 22 1 26 -5 7 -12 -5 -12 -60 -3 -31
5 -35 8 -20 14 28 11 35 10 35 -2z m-96 -5 c9 -3 13 -10 11 -15 -8 -12 34 -51
46 -44 5 4 8 1 7 -6 -3 -14 47 -30 68 -22 24 9 15 26 -11 21 -16 -3 -25 -1
-25 7 0 16 23 25 62 25 24 0 29 -3 24 -16 -9 -24 38 -69 61 -59 29 13 43 14
43 4 0 -5 5 -9 10 -9 6 0 10 6 10 14 0 9 -17 16 -46 21 -60 9 -44 29 21 27 26
-1 44 2 41 7 -18 28 67 15 90 -14 8 -11 18 -12 46 -3 26 8 40 7 54 -1 18 -11
18 -11 -1 -9 -11 1 -38 -2 -59 -6 -29 -6 -36 -10 -25 -17 11 -7 11 -9 -3 -9
-10 0 -18 7 -18 16 0 22 -25 44 -49 44 -13 0 -21 -6 -21 -17 0 -15 2 -16 10
-3 5 8 12 11 16 7 4 -4 -15 -27 -42 -51 -27 -24 -51 -42 -54 -39 -3 3 1 8 8
10 6 3 10 9 6 14 -11 19 -22 8 -20 -21 1 -16 -1 -30 -5 -30 -4 0 -14 -21 -22
-47 l-14 -48 -1 43 c0 24 3 40 9 37 5 -4 9 -1 9 4 0 15 -20 14 -24 -1 -3 -7
-7 -32 -10 -56 -6 -38 -3 -46 27 -78 29 -32 36 -35 55 -25 12 6 21 17 19 24
-1 7 6 11 16 9 9 -2 17 2 17 8 0 5 -5 10 -12 10 -6 0 -8 3 -5 6 4 4 13 2 20
-5 16 -13 43 -6 70 17 10 9 17 11 17 4 0 -10 -63 -49 -83 -51 -4 0 -15 -7 -23
-16 -8 -8 -27 -18 -41 -21 -22 -6 -33 0 -67 38 -23 26 -57 69 -76 97 -19 29
-41 59 -49 67 -10 11 -11 18 -2 27 8 8 11 7 11 -6 0 -9 9 -21 20 -27 11 -6 18
-15 16 -19 -3 -4 1 -17 9 -27 8 -10 15 -14 15 -7 0 6 -4 14 -9 17 -5 4 -7 21
-5 39 3 21 2 28 -4 18 -7 -10 -14 -6 -28 18 -19 32 -33 40 -30 19 0 -7 -3 -13
-9 -13 -5 0 -9 6 -9 12 1 7 -3 10 -8 7 -5 -3 -12 3 -15 15 -3 12 -9 21 -13 21
-4 0 -12 11 -18 25 -16 34 -29 32 -29 -5 0 -16 4 -27 9 -24 7 5 12 -10 9 -29
-1 -4 5 -17 13 -29 16 -23 11 -48 -10 -48 -15 0 -74 57 -74 71 0 17 27 -2 44
-31 18 -31 30 -37 41 -20 3 6 0 13 -8 16 -28 10 -51 97 -38 142 2 4 19 2 35
-4z m-379 -14 c3 -5 2 -10 -4 -10 -5 0 -13 5 -16 10 -3 6 -2 10 4 10 5 0 13
-4 16 -10z m630 -5 l60 -13 -55 3 c-30 2 -61 4 -67 5 -7 0 -13 5 -13 10 0 12
1 12 75 -5z m-335 1 c0 -3 -4 -8 -10 -11 -5 -3 -10 -1 -10 4 0 6 5 11 10 11 6
0 10 -2 10 -4z m170 -11 c0 -8 -4 -15 -10 -15 -5 0 -7 7 -4 15 4 8 8 15 10 15
2 0 4 -7 4 -15z m627 9 c-3 -3 -12 -4 -19 -1 -8 3 -5 6 6 6 11 1 17 -2 13 -5z
m-1091 -17 c10 4 12 0 8 -13 -4 -11 -4 -16 1 -12 8 7 75 -69 75 -86 0 -5 -13
5 -30 22 -16 18 -30 35 -30 39 0 5 -14 17 -30 28 -16 11 -30 24 -30 30 0 5 5
4 11 -2 6 -6 18 -9 25 -6z m141 -9 c-3 -8 -6 -5 -6 6 -1 11 2 17 5 13 3 -3 4
-12 1 -19z m698 2 c8 -13 -15 -13 -35 0 -12 8 -11 10 7 10 12 0 25 -4 28 -10z
m494 -16 c10 -9 -35 -3 -49 6 -11 8 -7 9 15 4 17 -4 32 -8 34 -10z m-78 -16
c1 -7 1 -16 0 -20 -2 -13 17 -9 22 5 4 9 6 9 6 0 1 -6 -3 -14 -8 -17 -13 -8
-42 4 -35 15 3 5 -5 9 -18 10 -22 0 -22 1 -3 9 28 12 35 12 36 -2z m-471 -45
c0 -7 -7 -10 -17 -6 -10 4 -14 2 -10 -4 4 -6 -1 -14 -11 -18 -16 -7 -15 -8 3
-15 17 -7 16 -9 -9 -9 -27 -1 -28 0 -14 22 8 12 21 32 29 44 13 22 28 15 29
-14z m280 33 c0 -2 -7 -7 -16 -10 -8 -3 -12 -2 -9 4 6 10 25 14 25 6z m230
-34 c10 7 16 16 14 20 -3 4 -1 8 5 8 25 0 17 -19 -14 -36 -27 -14 -37 -16 -47
-6 -16 16 -31 15 -25 -2 4 -10 -5 -19 -26 -27 -18 -7 -36 -15 -42 -17 -5 -2 5
10 24 28 25 23 31 34 22 43 -8 8 -14 8 -23 -1 -15 -15 -32 -16 -23 -2 10 15
-3 12 -25 -7 -11 -10 -26 -18 -33 -19 -36 -2 -96 -17 -92 -23 5 -9 -94 -45
-118 -44 -9 1 -15 -2 -12 -7 3 -5 -9 -17 -27 -27 -37 -19 -42 -21 -113 -27
l-50 -5 59 25 c69 28 77 29 50 9 -19 -15 -19 -15 1 -9 53 16 51 14 35 25 -11
7 -6 8 15 3 21 -4 26 -3 16 4 -10 7 -4 13 25 23 22 8 44 14 49 14 6 1 26 8 45
17 40 19 110 43 125 43 6 0 16 6 24 13 7 7 22 10 32 7 10 -4 19 -2 19 4 0 6
21 -1 46 -14 37 -20 49 -22 64 -13z m-345 2 c-41 -15 -151 -42 -157 -38 -18
11 5 24 43 24 21 0 39 3 39 8 0 4 19 8 43 8 23 1 38 0 32 -2z m-1464 -61 c44
-37 110 -123 103 -134 -3 -5 -12 -2 -21 6 -39 39 -141 78 -166 63 -29 -16 -15
33 21 75 20 23 25 22 63 -10z m587 15 c18 -24 24 -80 17 -165 -7 -84 -7 -84
-33 -81 -19 2 -33 14 -49 43 l-22 41 27 -1 c24 0 27 4 30 39 2 27 -3 47 -17
66 -18 25 -18 29 -5 49 17 24 37 27 52 9z m1147 -31 c-46 -39 -95 -56 -95 -32
0 5 -6 1 -12 -10 -6 -11 -15 -22 -19 -25 -4 -3 -4 -12 1 -20 8 -13 10 -12 10
3 0 9 7 17 15 17 8 0 15 5 15 10 0 6 5 10 10 10 19 0 10 -15 -25 -43 l-35 -27
-6 25 c-9 37 30 79 68 71 20 -4 26 -2 22 8 -6 16 21 40 36 31 5 -3 17 1 26 9
8 9 21 16 27 16 7 0 -10 -19 -38 -43z m-901 21 c-3 -4 1 -8 9 -8 26 0 42 -29
29 -51 -16 -25 -15 -30 4 -22 14 5 14 3 3 -15 l-13 -21 -11 22 c-6 12 -7 24
-3 25 12 5 9 30 -4 39 -7 4 -19 15 -25 24 -10 13 -10 16 2 16 8 0 12 -4 9 -9z
m105 -99 l-21 -21 7 21 c5 16 3 20 -9 15 -9 -3 -16 -1 -16 6 0 6 5 8 11 4 8
-4 9 1 5 17 l-7 24 16 -25 16 -25 -6 25 c-16 61 -14 71 5 27 l20 -47 -21 -21z
m970 81 c-13 -16 -25 -28 -27 -25 -5 5 37 55 45 55 2 0 -6 -13 -18 -30z
m-1264 -58 c2 -12 20 -53 40 -93 20 -39 33 -74 30 -77 -3 -3 -5 0 -5 6 0 6 -8
9 -17 6 -14 -5 -15 -4 -4 4 7 5 10 15 6 22 -6 9 -9 9 -15 -1 -5 -7 -20 -13
-34 -14 -22 0 -26 4 -25 25 1 17 3 19 6 8 2 -10 9 -18 15 -18 6 0 8 3 5 7 -4
3 0 14 8 23 14 15 14 20 2 31 -8 8 -17 21 -20 29 -4 8 -6 1 -4 -17 2 -18 0
-30 -5 -27 -5 3 -6 27 -4 52 3 26 5 51 5 56 1 15 11 0 16 -22z m153 10 c-14
-3 -15 -8 -7 -29 5 -14 8 -28 5 -30 -4 -4 -26 53 -26 68 0 4 10 4 23 1 17 -5
18 -7 5 -10z m186 -68 c4 -14 2 -21 -7 -21 -9 0 -14 12 -15 30 -1 31 11 26 22
-9z m160 27 c17 -6 17 -8 3 -14 -8 -3 -21 1 -27 9 -13 15 -6 17 24 5z m420
-16 c-10 -8 -14 -15 -9 -15 6 0 -1 -7 -15 -15 l-25 -15 27 4 c15 3 33 8 40 11
7 4 4 0 -6 -9 -10 -8 -23 -13 -27 -10 -5 3 -9 1 -9 -5 0 -17 -32 -42 -47 -36
-10 3 -13 1 -10 -9 3 -8 0 -17 -8 -19 -20 -8 -26 3 -13 27 14 27 29 37 46 31
8 -3 12 0 9 7 -5 14 53 81 62 73 2 -3 -4 -12 -15 -20z m-618 -20 c0 -14 -4
-25 -8 -25 -10 0 -10 13 -2 34 9 23 12 20 10 -9z m-29 -7 c-3 -8 -6 -5 -6 6
-1 11 2 17 5 13 3 -3 4 -12 1 -19z m1010 7 c0 -8 -4 -12 -9 -9 -5 3 -6 10 -3
15 9 13 12 11 12 -6z m-1088 -80 c1 -5 21 -23 46 -38 59 -38 58 -45 -3 -12
-36 19 -50 35 -60 63 -22 63 -23 79 -3 37 11 -22 20 -44 20 -50z m331 77 c0
-13 -12 -22 -22 -16 -10 6 -1 24 13 24 5 0 9 -4 9 -8z m-215 -28 c20 4 35 3
35 -2 0 -24 -85 -19 -94 5 -5 13 -4 14 9 3 9 -8 27 -10 50 -6z m440 -92 c29
-33 30 -33 5 -23 -14 5 -41 18 -62 29 l-36 19 26 10 c15 5 29 7 32 4 3 -3 19
-21 35 -39z"/>
<path d="M4186 3285 c-9 -26 -7 -32 5 -12 6 10 9 21 6 23 -2 3 -7 -2 -11 -11z"/>
<path d="M2101 2454 c0 -11 3 -14 6 -6 3 7 2 16 -1 19 -3 4 -6 -2 -5 -13z"/>
<path d="M2089 2425 c-1 -3 -2 -9 -3 -15 0 -5 -10 -16 -21 -24 -20 -15 -20
-15 3 -16 12 0 25 6 28 14 3 8 15 17 27 20 18 5 20 8 7 16 -16 10 -39 13 -41
5z"/>
<path d="M1600 2360 c0 -6 7 -10 15 -10 8 0 15 2 15 4 0 2 -7 6 -15 10 -8 3
-15 1 -15 -4z"/>
<path d="M2103 2622 c0 -12 5 -22 9 -22 11 0 10 12 -2 30 -7 12 -9 10 -7 -8z"/>
<path d="M2430 1969 c0 -5 -6 -7 -12 -3 -7 4 -10 4 -6 -1 4 -4 3 -14 -3 -21
-7 -9 -4 -14 11 -19 17 -5 21 -13 17 -33 -4 -18 2 -35 18 -54 24 -29 41 -24
28 8 -4 11 -3 15 4 11 8 -5 8 4 0 29 -6 21 -19 39 -29 42 -18 4 -22 14 -19 40
1 6 -1 12 -4 12 -3 0 -5 -5 -5 -11z m43 -104 c-9 -15 -11 -15 -23 0 -11 13
-10 15 4 9 10 -4 16 -1 16 7 0 7 3 10 6 6 3 -3 2 -13 -3 -22z"/>
<path d="M2553 1726 c2 -6 12 -10 22 -8 9 2 15 0 12 -5 -3 -4 1 -13 8 -20 10
-9 13 -7 11 13 0 13 -3 24 -6 25 -34 6 -50 4 -47 -5z"/>
<path d="M4055 2128 c-8 -86 -30 -191 -47 -221 -7 -12 -21 -49 -33 -82 -13
-38 -25 -59 -34 -57 -9 2 -11 -3 -7 -13 3 -9 6 -21 6 -26 0 -17 17 -9 28 14 8
17 11 18 11 5 1 -9 -3 -20 -9 -23 -13 -8 -13 -45 -1 -45 6 0 13 5 17 11 5 8 9
8 14 -1 5 -7 13 -2 24 15 10 15 15 29 12 33 -3 3 -6 0 -6 -7 0 -7 -5 -9 -12
-5 -7 4 -8 3 -4 -4 4 -7 2 -12 -4 -12 -8 0 -9 7 -5 18 4 9 8 28 10 42 1 14 5
36 9 50 7 23 6 24 -8 7 -8 -10 -13 -32 -11 -48 2 -16 0 -29 -5 -29 -18 0 -10
47 20 111 16 35 30 62 31 59 6 -19 5 -58 -3 -73 -5 -10 -5 -24 0 -33 6 -10 14
24 26 103 10 65 24 130 32 144 7 15 16 45 20 67 5 34 3 42 -17 56 -40 28 -47
21 -54 -56z m15 -189 c0 -11 -4 -18 -10 -14 -5 3 -7 12 -3 20 7 21 13 19 13
-6z"/>
<path d="M3895 2080 c-10 -11 -15 -20 -11 -20 11 0 39 30 34 36 -3 2 -13 -5
-23 -16z"/>
<path d="M3667 2052 c-8 -18 -8 -25 4 -32 10 -7 17 -2 27 15 7 14 15 25 18 25
3 0 2 -4 -1 -10 -3 -5 0 -7 9 -4 30 12 24 29 -12 29 -27 0 -37 -5 -45 -23z
m28 8 c3 -5 1 -10 -4 -10 -6 0 -11 5 -11 10 0 6 2 10 4 10 3 0 8 -4 11 -10z"/>
<path d="M3863 2027 c-1 -11 -1 -18 0 -16 2 2 8 11 15 20 9 12 9 16 -1 16 -7
0 -14 -9 -14 -20z"/>
<path d="M3970 2029 c0 -5 5 -7 10 -4 6 3 10 8 10 11 0 2 -4 4 -10 4 -5 0 -10
-5 -10 -11z"/>
<path d="M3967 1915 c-10 -14 -13 -26 -7 -30 5 -3 10 -12 10 -18 0 -8 -3 -8
-9 2 -13 20 -19 1 -13 -38 l5 -34 14 33 c7 19 15 47 17 64 2 17 9 30 15 29 6
-2 11 2 11 7 0 18 -25 10 -43 -15z"/>
<path d="M3920 1866 c0 -8 4 -17 9 -20 5 -4 7 3 4 14 -6 23 -13 26 -13 6z"/>
<path d="M4037 1873 c-4 -3 -7 -13 -7 -22 1 -13 3 -13 11 2 11 19 8 33 -4 20z"/>
<path d="M4033 1787 c1 -22 5 -33 10 -28 6 6 5 20 -1 38 -9 28 -9 27 -9 -10z"/>
<path d="M3928 1694 c-5 -4 -8 -21 -8 -38 0 -21 3 -27 11 -19 6 6 9 23 7 38
-2 15 -6 23 -10 19z"/>
<path d="M3950 1631 c0 -17 18 -21 24 -6 3 9 0 15 -9 15 -8 0 -15 -4 -15 -9z"/>
<path d="M2111 1634 c0 -11 3 -14 6 -6 3 7 2 16 -1 19 -3 4 -6 -2 -5 -13z"/>
<path d="M2124 1568 c6 -57 6 -56 16 -30 6 13 6 32 0 47 -14 38 -22 30 -16
-17z"/>
<path d="M2200 1367 c0 -8 7 -18 16 -21 11 -4 14 -1 12 11 -4 21 -28 30 -28
10z"/>
<path d="M4295 1874 c9 -9 19 -13 23 -10 3 4 0 11 -8 16 -24 15 -33 11 -15 -6z"/>
<path d="M4282 1706 c-1 -55 2 -96 6 -90 4 5 5 50 2 99 l-7 90 -1 -99z"/>
<path d="M4460 1780 c-13 -9 -13 -10 0 -10 8 0 22 5 30 10 13 9 13 10 0 10 -8
0 -22 -5 -30 -10z"/>
<path d="M4320 1684 c0 -21 4 -45 9 -53 5 -8 7 5 4 35 -7 61 -13 70 -13 18z"/>
<path d="M2286 1707 c3 -10 9 -15 12 -12 3 3 0 11 -7 18 -10 9 -11 8 -5 -6z"/>
<path d="M2204 1700 c8 -44 34 -126 34 -105 1 11 -8 45 -18 75 -11 30 -18 44
-16 30z"/>
<path d="M3794 1788 l-19 -23 25 20 c14 11 27 21 29 22 2 2 0 3 -6 3 -5 0 -18
-10 -29 -22z"/>
<path d="M4770 1105 c0 -8 4 -15 10 -15 5 0 7 7 4 15 -4 8 -8 15 -10 15 -2 0
-4 -7 -4 -15z"/>
<path d="M1413 1572 c-7 -4 -9 -13 -4 -21 6 -10 10 -9 15 5 8 20 4 25 -11 16z"/>
<path d="M2680 1360 c0 -5 5 -10 11 -10 5 0 7 5 4 10 -3 6 -8 10 -11 10 -2 0
-4 -4 -4 -10z"/>
<path d="M3869 1492 c-3 -20 -2 -29 4 -23 5 5 7 19 5 32 -3 20 -5 19 -9 -9z"/>
<path d="M3895 1190 c3 -5 11 -10 16 -10 6 0 7 5 4 10 -3 6 -11 10 -16 10 -6
0 -7 -4 -4 -10z"/>
<path d="M3820 1160 c-20 -12 -5 -24 16 -12 9 5 12 12 7 15 -5 3 -15 2 -23 -3z"/>
<path d="M3716 875 c-11 -8 -15 -15 -9 -15 19 0 43 12 43 21 0 13 -12 11 -34
-6z"/>
<path d="M3840 819 c0 -24 23 -21 28 4 2 10 -3 17 -12 17 -10 0 -16 -9 -16
-21z"/>
<path d="M3932 827 c-56 -51 -72 -70 -72 -87 0 -13 7 -20 20 -20 11 0 20 6 20
13 0 7 14 26 31 43 43 41 55 64 32 64 -10 -1 -24 -6 -31 -13z"/>
<path d="M3560 766 c0 -8 -12 -17 -27 -21 -16 -4 -23 -9 -16 -12 17 -6 85 25
78 37 -9 15 -35 12 -35 -4z"/>
<path d="M3705 746 l-39 -13 33 -6 c54 -11 65 -9 52 7 -9 11 -9 15 1 19 24 10
-7 5 -47 -7z"/>
<path d="M3926 751 c-4 -5 -3 -17 0 -26 6 -15 8 -14 25 1 11 9 19 21 19 26 0
11 -37 10 -44 -1z m24 -5 c0 -3 -4 -8 -10 -11 -5 -3 -10 -1 -10 4 0 6 5 11 10
11 6 0 10 -2 10 -4z"/>
<path d="M3620 945 c-14 -8 -19 -14 -10 -14 8 0 24 6 34 14 25 19 9 19 -24 0z"/>
<path d="M2745 960 c3 -5 8 -10 11 -10 2 0 4 5 4 10 0 6 -5 10 -11 10 -5 0 -7
-4 -4 -10z"/>
<path d="M3370 991 c0 -6 5 -13 10 -16 6 -3 10 1 10 9 0 9 -4 16 -10 16 -5 0
-10 -4 -10 -9z"/>
<path d="M3850 543 c0 -5 4 -14 9 -21 6 -10 10 -10 21 3 11 13 10 14 -5 9 -13
-5 -16 -4 -11 4 4 7 2 12 -3 12 -6 0 -11 -3 -11 -7z"/>
<path d="M3695 500 c-10 -11 -15 -23 -12 -27 4 -3 7 -1 7 6 0 7 4 10 9 7 5 -3
14 1 20 8 19 23 -4 28 -24 6z"/>
<path d="M3817 500 c3 -11 0 -20 -6 -20 -6 0 -11 6 -11 13 -1 6 -10 1 -21 -12
-27 -32 -5 -46 27 -18 25 21 31 42 15 51 -5 4 -7 -3 -4 -14z"/>
<path d="M3660 449 c0 -5 5 -7 10 -4 6 3 10 8 10 11 0 2 -4 4 -10 4 -5 0 -10
-5 -10 -11z"/>
<path d="M3710 399 c0 -5 5 -7 10 -4 6 3 10 8 10 11 0 2 -4 4 -10 4 -5 0 -10
-5 -10 -11z"/>
<path d="M2425 880 c-3 -5 -1 -10 4 -10 6 0 11 5 11 10 0 6 -2 10 -4 10 -3 0
-8 -4 -11 -10z"/>
<path d="M3081 789 c19 -12 110 -11 129 1 10 7 -9 9 -64 9 -49 -1 -73 -5 -65
-10z"/>
<path d="M3305 680 c3 -5 11 -10 16 -10 6 0 7 5 4 10 -3 6 -11 10 -16 10 -6 0
-7 -4 -4 -10z"/>
<path d="M2973 703 c9 -2 25 -2 35 0 9 3 1 5 -18 5 -19 0 -27 -2 -17 -5z"/>
<path d="M2891 634 c0 -11 3 -14 6 -6 3 7 2 16 -1 19 -3 4 -6 -2 -5 -13z"/>
<path d="M2869 598 c-7 -13 -4 -66 4 -75 13 -17 27 -6 27 20 -1 21 -1 21 -15
3 -13 -17 -14 -15 -8 18 3 20 3 36 -1 36 -3 0 -7 -1 -7 -2z"/>
<path d="M3517 583 c-4 -3 -7 -11 -7 -17 0 -6 5 -5 12 2 6 6 9 14 7 17 -3 3
-9 2 -12 -2z"/>
<path d="M2472 400 c0 -14 2 -19 5 -12 2 6 2 18 0 25 -3 6 -5 1 -5 -13z"/>
<path d="M3300 400 c0 -5 5 -10 10 -10 6 0 10 5 10 10 0 6 -4 10 -10 10 -5 0
-10 -4 -10 -10z"/>
<path d="M3150 360 c-9 -6 -10 -10 -3 -10 6 0 15 5 18 10 8 12 4 12 -15 0z"/>
</g>
</svg>
